<svg width="15" height="12" viewBox="0 0 15 12" fill="none" xmlns="http://www.w3.org/2000/svg">
<path d="M5.33342 11.3334C4.03341 11.3334 2.93075 10.8806 2.02541 9.97478C1.11964 9.06945 0.666748 7.96678 0.666748 6.66678C0.666748 5.46678 1.06119 4.42234 1.85008 3.53345C2.63897 2.64456 3.61675 2.13345 4.78341 2.00011L4.18341 1.40011C4.06119 1.27789 4.00008 1.125 4.00008 0.941447C4.00008 0.758336 4.06675 0.600114 4.20008 0.466781C4.3223 0.344558 4.47786 0.283447 4.66675 0.283447C4.85564 0.283447 5.01119 0.344558 5.13341 0.466781L6.86675 2.20011C6.93341 2.26678 6.98075 2.339 7.00875 2.41678C7.0363 2.49456 7.05008 2.57789 7.05008 2.66678C7.05008 2.75567 7.0363 2.839 7.00875 2.91678C6.98075 2.99456 6.93341 3.06678 6.86675 3.13345L5.13341 4.86678C5.01119 4.989 4.85853 5.05278 4.67542 5.05811C4.49186 5.06389 4.33342 5.00011 4.20008 4.86678C4.07786 4.74456 4.01675 4.59167 4.01675 4.40811C4.01675 4.225 4.07786 4.06678 4.20008 3.93345L4.71675 3.40011C3.93897 3.55567 3.29164 3.93345 2.77475 4.53345C2.2583 5.13345 2.00008 5.84456 2.00008 6.66678C2.00008 7.589 2.32519 8.37523 2.97541 9.02545C3.62519 9.67523 4.41119 10.0001 5.33342 10.0001H6.66675C6.85564 10.0001 7.01408 10.0641 7.14208 10.1921C7.26964 10.3197 7.33342 10.4779 7.33342 10.6668C7.33342 10.8557 7.26964 11.0139 7.14208 11.1414C7.01408 11.2694 6.85564 11.3334 6.66675 11.3334H5.33342ZM10.0001 11.3334C9.63342 11.3334 9.31964 11.203 9.05875 10.9421C8.79741 10.6808 8.66675 10.3668 8.66675 10.0001V8.00011C8.66675 7.63345 8.79741 7.31945 9.05875 7.05811C9.31964 6.79722 9.63342 6.66678 10.0001 6.66678H13.3334C13.7001 6.66678 14.0141 6.79722 14.2754 7.05811C14.5363 7.31945 14.6667 7.63345 14.6667 8.00011V10.0001C14.6667 10.3668 14.5363 10.6808 14.2754 10.9421C14.0141 11.203 13.7001 11.3334 13.3334 11.3334H10.0001ZM10.0001 10.0001H13.3334V8.00011H10.0001V10.0001ZM10.0001 5.33345C9.63342 5.33345 9.31964 5.20278 9.05875 4.94145C8.79741 4.68056 8.66675 4.36678 8.66675 4.00011V2.00011C8.66675 1.63345 8.79741 1.31967 9.05875 1.05878C9.31964 0.797447 9.63342 0.666781 10.0001 0.666781H13.3334C13.7001 0.666781 14.0141 0.797447 14.2754 1.05878C14.5363 1.31967 14.6667 1.63345 14.6667 2.00011V4.00011C14.6667 4.36678 14.5363 4.68056 14.2754 4.94145C14.0141 5.20278 13.7001 5.33345 13.3334 5.33345H10.0001Z" fill="#1E88E5"/>
</svg>
