<svg width="16" height="16" viewBox="0 0 16 16" fill="none" xmlns="http://www.w3.org/2000/svg">
<path d="M9.55902 14.9294C9.41176 14.9754 9.25434 14.9779 9.10572 14.9365L4.66675 13.6999V13.8666C4.66675 14.3084 4.30858 14.6666 3.86675 14.6666H1.46675C1.02492 14.6666 0.666748 14.3084 0.666748 13.8666V8.13325C0.666748 7.69142 1.02492 7.33325 1.46675 7.33325H5.96675L10.1001 8.86659C10.4667 8.99992 10.7641 9.23325 10.9921 9.56659C11.2196 9.89992 11.3334 10.2666 11.3334 10.6666H12.6667C13.2223 10.6666 13.6945 10.8499 14.0834 11.2166C14.4723 11.5833 14.6667 12.0666 14.6667 12.6666V12.7451C14.6667 13.095 14.4393 13.4043 14.1054 13.5087L9.55902 14.9294ZM2.00008 13.3333H3.33341V8.66659H2.00008V13.3333ZM9.30008 13.5999L13.2667 12.3666C13.2334 12.2444 13.1583 12.1526 13.0414 12.0913C12.925 12.0304 12.8001 11.9999 12.6667 11.9999H9.46675C9.1223 11.9999 8.81119 11.9777 8.53341 11.9333C8.25564 11.8888 7.95564 11.811 7.63341 11.6999L7.08926 11.5106C6.75073 11.3929 6.56539 11.029 6.66921 10.686C6.77765 10.3277 7.15928 10.1283 7.51531 10.244L8.20008 10.4666C8.40008 10.5333 8.63342 10.5833 8.90008 10.6166C9.16675 10.6499 9.53341 10.6666 10.0001 10.6666C10.0001 10.5444 9.96408 10.4277 9.89208 10.3166C9.81964 10.2055 9.73341 10.1333 9.63341 10.0999L5.73341 8.66659H4.66675V12.3333L9.30008 13.5999Z" fill="#FF7500"/>
<path fill-rule="evenodd" clip-rule="evenodd" d="M9.44 3.0401V5.7601H13.76V3.0401H9.44ZM8.8 1.6001C8.35817 1.6001 8 1.95827 8 2.4001V6.4001C8 6.84193 8.35817 7.2001 8.8 7.2001H14.4C14.8418 7.2001 15.2 6.84193 15.2 6.4001V2.4001C15.2 1.95827 14.8418 1.6001 14.4 1.6001H8.8Z" fill="#FF7500"/>
</svg>
