<svg width="120" height="121" viewBox="0 0 120 121" fill="none" xmlns="http://www.w3.org/2000/svg">
<g clip-path="url(#clip0_3560_229744)">
<rect x="35.4964" y="76.9211" width="49.0072" height="63.981" rx="24.5036" fill="#FFA600"/>
<path d="M53.1179 77.9003C53.1179 77.9003 57.4869 76.7137 60.259 76.7137C63.031 76.7137 67.3144 78.0363 67.3144 78.0363L67.3144 81.4426C67.3144 85.3629 64.1364 88.5409 60.2161 88.5409C56.2959 88.5409 53.1179 85.3629 53.1179 81.4426L53.1179 77.9003Z" fill="#FF7500"/>
<ellipse cx="41.4972" cy="55.1365" rx="3.86471" ry="5.02299" transform="rotate(-33.6589 41.4972 55.1365)" fill="#F99E77"/>
<ellipse cx="78.5025" cy="55.1367" rx="3.86471" ry="5.02299" transform="rotate(33.66 78.5025 55.1367)" fill="#F99E77"/>
<rect x="55.8065" y="70.6897" width="8.81928" height="14.3128" rx="4.40964" fill="#F6B396"/>
<rect x="55.8065" y="66.0509" width="8.81928" height="12.463" rx="4.40964" fill="#EA9976"/>
<rect x="44.2803" y="31.699" width="31.8719" height="44.1829" rx="15.9359" fill="#F6B396"/>
<path d="M53.7573 64.2307C53.7573 65.0789 53.9244 65.9188 54.249 66.7025C54.5736 67.4861 55.0494 68.1981 55.6491 68.7979C56.2489 69.3977 56.9609 69.8734 57.7446 70.198C58.5282 70.5226 59.3681 70.6897 60.2163 70.6897C61.0645 70.6897 61.9044 70.5226 62.688 70.198C63.4717 69.8734 64.1837 69.3977 64.7835 68.7979C65.3832 68.1981 65.859 67.4861 66.1836 66.7025C66.5082 65.9188 66.6752 65.0789 66.6752 64.2307L60.2163 64.2307L53.7573 64.2307Z" fill="white"/>
<rect x="76.1523" y="40.1454" width="2.78321" height="14.594" rx="1.39161" fill="#44403F"/>
<circle cx="52.6488" cy="36.9438" r="12.3684" fill="#44403F"/>
<path fill-rule="evenodd" clip-rule="evenodd" d="M68.3352 47.4121H59.3837C55.2847 47.4121 51.7081 44.1337 51.7081 40.0347V38.088C51.7081 37.3771 51.7081 36.4267 51.7081 35.6843C51.7081 30.5984 55.8309 26.4756 60.9167 26.4756C63.3975 26.4756 65.6492 27.4566 67.305 29.0518C67.6432 29.0141 67.987 28.9948 68.3352 28.9948C73.421 28.9948 77.5439 33.1177 77.5439 38.2035C77.5439 43.1926 73.5763 47.255 68.6243 47.4077V47.4121H68.3352Z" fill="#37312F"/>
<path fill-rule="evenodd" clip-rule="evenodd" d="M72.1969 47.4121H63.2454C59.1464 47.4121 55.8235 44.0892 55.8235 39.9902V37.8402C55.6576 37.1486 55.5698 36.4267 55.5698 35.6843C55.5698 30.5984 59.6926 26.4756 64.7784 26.4756C67.2592 26.4756 69.5109 27.4566 71.1667 29.0518C71.5049 29.0141 71.8486 28.9948 72.1969 28.9948C77.2827 28.9948 81.4056 33.1177 81.4056 38.2035C81.4056 43.1926 77.438 47.255 72.486 47.4077V47.4121H72.1969Z" fill="#44403F"/>
<rect x="41.4973" y="40.1454" width="2.78321" height="14.594" rx="1.39161" fill="#44403F"/>
</g>
<g clip-path="url(#clip1_3560_229744)">
<circle cx="99" cy="99.037" r="21" fill="#EF5350"/>
<line x1="99.1667" y1="102.704" x2="99.1667" y2="98.8703" stroke="white" stroke-width="2" stroke-linecap="round"/>
<rect x="97.8333" y="94.3704" width="2.33333" height="2.33333" rx="1.16667" fill="white"/>
<circle cx="99" cy="99.0369" r="8.33333" stroke="white" stroke-width="2"/>
</g>
<defs>
<clipPath id="clip0_3560_229744">
<rect width="120" height="120" rx="60" fill="white"/>
</clipPath>
<clipPath id="clip1_3560_229744">
<rect width="42" height="42" fill="white" transform="translate(78 78.037)"/>
</clipPath>
</defs>
</svg>
