<svg width="120" height="120" viewBox="0 0 120 120" fill="none" xmlns="http://www.w3.org/2000/svg">
<path d="M43.3798 79.6576C44.8607 78.0696 47.3485 77.9827 48.9365 79.4635L54.9716 85.0914C56.5596 86.5722 56.6465 89.06 55.1656 90.648V90.648C53.6848 92.236 51.197 92.3229 49.609 90.8421L43.5739 85.2142C41.9859 83.7334 41.899 81.2456 43.3798 79.6576V79.6576Z" fill="#FCB73F"/>
<path d="M46.0611 76.7823L52.6422 82.9192L47.2796 88.6699L40.6986 82.5329L46.0611 76.7823Z" fill="#FF9500"/>
<rect x="52.4695" y="67.5259" width="14.2602" height="7.86303" rx="3.93151" transform="rotate(43 52.4695 67.5259)" fill="#FCB73F"/>
<path d="M53.7408 68.7113L59.4874 74.0702L54.1248 79.8208L48.3782 74.462L53.7408 68.7113Z" fill="#FF9500"/>
<rect x="59.8235" y="54.4154" width="10.6024" height="39.9441" rx="5.30122" transform="rotate(43 59.8235 54.4154)" fill="#FCB73F"/>
<rect x="59.6393" y="59.708" width="3.56755" height="29.6383" rx="1.78377" transform="rotate(43 59.6393 59.708)" fill="#FF9500"/>
<ellipse cx="71.2819" cy="49.1665" rx="18.515" ry="18.5126" transform="rotate(43 71.2819 49.1665)" fill="#FCB73F"/>
<ellipse cx="71.2818" cy="49.1666" rx="11.6546" ry="11.6532" transform="rotate(43 71.2818 49.1666)" fill="#F3832E"/>
<ellipse cx="71.2818" cy="49.1664" rx="4.81201" ry="4.81139" transform="rotate(43 71.2818 49.1664)" fill="white"/>
<path d="M47.4547 27L48.7641 30.5384L52.3025 31.8478L48.7641 33.1571L47.4547 36.6956L46.1454 33.1571L42.6069 31.8478L46.1454 30.5384L47.4547 27Z" fill="#FCB73F"/>
<path d="M40.6142 48.9267L42.2499 53.3472L46.6704 54.983L42.2499 56.6187L40.6142 61.0392L38.9784 56.6187L34.5579 54.983L38.9784 53.3472L40.6142 48.9267Z" fill="#FCB73F"/>
<path d="M31.1312 33.4677L33.0357 38.6144L38.1825 40.5189L33.0357 42.4234L31.1312 47.5702L29.2267 42.4234L24.08 40.5189L29.2267 38.6144L31.1312 33.4677Z" fill="#FCB73F"/>
</svg>
