<svg width="120" height="121" viewBox="0 0 120 121" fill="none" xmlns="http://www.w3.org/2000/svg">
<g clip-path="url(#clip0_3560_229544)">
<rect x="21.9014" y="77.125" width="49.0072" height="63.981" rx="24.5036" fill="#FFA600"/>
<path d="M39.5228 78.104C39.5228 78.104 43.8919 76.9174 46.6639 76.9174C49.436 76.9174 53.7193 78.24 53.7193 78.24L53.7194 81.6463C53.7194 85.5666 50.5414 88.7446 46.6211 88.7446C42.7008 88.7446 39.5228 85.5666 39.5228 81.6464L39.5228 78.104Z" fill="#FF7500"/>
<ellipse cx="27.9021" cy="55.3403" rx="3.86471" ry="5.02299" transform="rotate(-33.6589 27.9021 55.3403)" fill="#F99E77"/>
<ellipse cx="64.9075" cy="55.3405" rx="3.86471" ry="5.02299" transform="rotate(33.66 64.9075 55.3405)" fill="#F99E77"/>
<rect x="42.2115" y="70.8934" width="8.81928" height="14.3128" rx="4.40964" fill="#F6B396"/>
<rect x="42.2115" y="66.2546" width="8.81928" height="12.463" rx="4.40964" fill="#EA9976"/>
<rect x="30.6852" y="31.9027" width="31.8719" height="44.1829" rx="15.9359" fill="#F6B396"/>
<path d="M40.1623 64.4345C40.1623 65.2827 40.3294 66.1226 40.654 66.9062C40.9786 67.6899 41.4543 68.4019 42.0541 69.0016C42.6539 69.6014 43.3659 70.0772 44.1495 70.4018C44.9332 70.7264 45.773 70.8934 46.6213 70.8934C47.4695 70.8934 48.3093 70.7264 49.093 70.4018C49.8766 70.0772 50.5886 69.6014 51.1884 69.0016C51.7882 68.4019 52.2639 67.6899 52.5885 66.9062C52.9131 66.1226 53.0802 65.2827 53.0802 64.4345L46.6213 64.4345L40.1623 64.4345Z" fill="white"/>
<rect x="62.5573" y="40.3491" width="2.78321" height="14.594" rx="1.39161" fill="#44403F"/>
<circle cx="39.0537" cy="37.1476" r="12.3684" fill="#44403F"/>
<path fill-rule="evenodd" clip-rule="evenodd" d="M54.7402 47.6159H45.7887C41.6897 47.6159 38.113 44.3374 38.113 40.2384V38.2918C38.113 37.5808 38.113 36.6305 38.113 35.888C38.113 30.8022 42.2359 26.6793 47.3217 26.6793C49.8025 26.6793 52.0542 27.6603 53.71 29.2555C54.0482 29.2179 54.3919 29.1986 54.7402 29.1986C59.826 29.1986 63.9488 33.3214 63.9488 38.4072C63.9488 43.3963 59.9813 47.4587 55.0292 47.6114V47.6159H54.7402Z" fill="#37312F"/>
<path fill-rule="evenodd" clip-rule="evenodd" d="M58.6019 47.6159H49.6504C45.5514 47.6159 42.2285 44.293 42.2285 40.194V38.0439C42.0626 37.3524 41.9747 36.6305 41.9747 35.888C41.9747 30.8022 46.0976 26.6793 51.1834 26.6793C53.6642 26.6793 55.9159 27.6603 57.5717 29.2555C57.9099 29.2179 58.2536 29.1986 58.6019 29.1986C63.6877 29.1986 67.8105 33.3214 67.8105 38.4072C67.8105 43.3963 63.843 47.4587 58.8909 47.6114V47.6159H58.6019Z" fill="#44403F"/>
<rect x="27.9023" y="40.3491" width="2.78321" height="14.594" rx="1.39161" fill="#44403F"/>
<rect x="58.9066" y="72.7732" width="36.9084" height="24.3456" rx="4.17831" fill="#1E88E5"/>
<rect x="62.5573" y="83.2062" width="7.66215" height="2.78554" rx="1.39277" fill="white" fill-opacity="0.5"/>
<rect x="62.5573" y="88.3024" width="11.6564" height="2.78554" rx="1.39277" fill="white" fill-opacity="0.5"/>
<path fill-rule="evenodd" clip-rule="evenodd" d="M88.1173 77.1256C88.4062 76.8369 88.7979 76.6747 89.2063 76.6747C89.6147 76.6747 90.0063 76.8369 90.2952 77.1256L92.2866 79.1171C92.5754 79.4059 92.7376 79.7976 92.7376 80.206C92.7376 80.6144 92.5754 81.0061 92.2866 81.2949L91.0653 82.5163L86.896 78.347L88.1173 77.1256ZM85.8071 79.4359L78.8762 86.3668C78.5873 86.6555 78.425 87.0472 78.4249 87.4557V89.4472C78.4249 89.8556 78.5872 90.2474 78.876 90.5362C79.1649 90.8251 79.5566 90.9873 79.9651 90.9873H81.9566C82.365 90.9873 82.7567 90.8249 83.0455 90.5361L89.9764 83.6052L85.8071 79.4359Z" fill="white"/>
</g>
<defs>
<clipPath id="clip0_3560_229544">
<rect x="0.000610352" y="0.203735" width="120" height="120" rx="60" fill="white"/>
</clipPath>
</defs>
</svg>
