<svg width="120" height="121" viewBox="0 0 120 121" fill="none" xmlns="http://www.w3.org/2000/svg">
<rect x="24" y="51.3975" width="58.51" height="46.342" rx="5.09676" fill="#A9C1DA"/>
<path d="M24 56.4942C24 53.6794 26.2819 51.3975 29.0968 51.3975H54.6062V97.7395H29.0968C26.2819 97.7395 24 95.4576 24 92.6427V56.4942Z" fill="#C4D8EC"/>
<path d="M38.5608 55.1258C39.0192 55.1258 39.394 55.4979 39.3602 55.955C39.272 57.1453 38.9944 58.3157 38.5363 59.4217C37.9722 60.7837 37.1453 62.0212 36.1029 63.0636C35.0605 64.106 33.8229 64.9329 32.461 65.497C31.355 65.9551 30.1846 66.2327 28.9943 66.3209C28.5372 66.3547 28.165 65.9799 28.165 65.5215V56.7858C28.165 55.869 28.9083 55.1258 29.8251 55.1258H38.5608Z" fill="#DFE9F6"/>
<rect x="39.1904" y="70.2657" width="30.7819" height="15.9982" rx="2.54838" fill="#9CB4CE"/>
<path d="M73.9176 51.3975H54.5822V71.1767C54.5822 71.1767 55.5662 62.7754 61.6674 57.53C67.7687 52.2847 73.9176 51.3975 73.9176 51.3975Z" fill="#A2BBD6"/>
<rect x="39.1904" y="69.4358" width="30.7819" height="15.3694" rx="2.54838" fill="#BFD2E6"/>
<path d="M39.1904 71.9842C39.1904 70.5767 40.3314 69.4358 41.7388 69.4358H54.5814V84.8052H41.7388C40.3314 84.8052 39.1904 83.6643 39.1904 82.2568V71.9842Z" fill="#DFE9F6" fill-opacity="0.8"/>
<circle cx="43.2851" cy="77.471" r="1.39638" fill="#A9C1DA"/>
<circle cx="66.1942" cy="77.471" r="1.39638" fill="#A9C1DA"/>
<path fill-rule="evenodd" clip-rule="evenodd" d="M33.2666 45.5294C33.2666 33.9152 42.6818 24.5 54.296 24.5C65.9102 24.5 75.3255 33.9152 75.3255 45.5294V51.3976H69.9887V46.2225C69.9887 37.5557 62.9628 30.5299 54.2961 30.5299C45.6293 30.5299 38.6034 37.5557 38.6034 46.2225V51.3976H33.2666V45.5294Z" fill="#A2BBD6"/>
<path fill-rule="evenodd" clip-rule="evenodd" d="M31.1855 45.5294C31.1855 33.9152 40.6007 24.5 52.215 24.5C63.8292 24.5 73.2444 33.9152 73.2444 45.5294V51.3976H67.9076V46.2225C67.9076 37.5557 60.8818 30.5299 52.215 30.5299C43.5482 30.5299 36.5224 37.5557 36.5224 46.2225V51.3976H31.1855V45.5294Z" fill="#C4D8EC"/>
<path fill-rule="evenodd" clip-rule="evenodd" d="M46.2976 31.6838C40.5639 34.0199 36.5225 39.6492 36.5225 46.2224V51.3976H33.6758V46.2224C33.6758 37.9988 41.034 31.6838 46.2976 31.6838Z" fill="#F9F9FF" fill-opacity="0.5"/>
<path d="M50.0131 85.1576C51.4939 83.5696 53.9817 83.4827 55.5697 84.9635L61.6048 90.5914C63.1928 92.0722 63.2797 94.56 61.7988 96.148V96.148C60.318 97.736 57.8302 97.8229 56.2422 96.342L50.2071 90.7142C48.6191 89.2333 48.5322 86.7456 50.0131 85.1576V85.1576Z" fill="#FCB73F"/>
<path d="M52.6943 82.2822L59.2754 88.4192L53.9128 94.1698L47.3318 88.0329L52.6943 82.2822Z" fill="#FF9500"/>
<rect x="59.1035" y="73.0259" width="14.2602" height="7.86303" rx="3.93151" transform="rotate(43 59.1035 73.0259)" fill="#FCB73F"/>
<path d="M60.375 74.2113L66.1217 79.5702L60.7591 85.3208L55.0124 79.962L60.375 74.2113Z" fill="#FF9500"/>
<rect x="66.457" y="59.9154" width="10.6024" height="39.9441" rx="5.30122" transform="rotate(43 66.457 59.9154)" fill="#FCB73F"/>
<rect x="66.2725" y="65.208" width="3.56755" height="29.6383" rx="1.78377" transform="rotate(43 66.2725 65.208)" fill="#FF9500"/>
<ellipse cx="77.9154" cy="54.6665" rx="18.515" ry="18.5126" transform="rotate(43 77.9154 54.6665)" fill="#FCB73F"/>
<ellipse cx="77.9151" cy="54.6666" rx="11.6546" ry="11.6532" transform="rotate(43 77.9151 54.6666)" fill="#F3832E"/>
<ellipse cx="77.9156" cy="54.6665" rx="4.81201" ry="4.81139" transform="rotate(43 77.9156 54.6665)" fill="white"/>
</svg>
