<svg width="68" height="59" viewBox="0 0 68 59" fill="none" xmlns="http://www.w3.org/2000/svg">
<circle cx="7.923" cy="26.4429" r="7.05935" fill="#3165E5"/>
<rect x="21.9785" y="37.2678" width="5.59497" height="7.77955" rx="2.79748" transform="rotate(-19.7315 21.9785 37.2678)" fill="#454562"/>
<circle cx="62.3495" cy="26.4432" r="4.78696" fill="#5EA9FF"/>
<rect x="4.25684" y="21.9148" width="4.94342" height="2.43538" rx="1.21769" fill="#203892"/>
<rect x="4.25684" y="25.3049" width="4.94342" height="2.43538" rx="1.21769" fill="#203892"/>
<rect x="4.25684" y="28.6948" width="4.94342" height="2.43538" rx="1.21769" fill="#203892"/>
<path d="M24.5019 36.095H11.1318V39.0181C11.1318 40.2545 11.342 41.4818 11.7534 42.6476L17.0657 57.7014C17.3957 58.6364 18.4141 59.1345 19.3548 58.821L27.4791 56.1129C28.423 55.7983 28.9385 54.7833 28.6359 53.8355L25.0185 42.5044C24.6762 41.432 24.5019 40.3131 24.5019 39.1874V36.095Z" fill="#65658E"/>
<path d="M7.92297 18.609C7.92297 16.6011 9.55067 14.9734 11.5585 14.9734H27.9482V37.9127H11.5585C9.55067 37.9127 7.92297 36.285 7.92297 34.2771V18.609Z" fill="#3E7FFF"/>
<path d="M54.9577 4.71899L33.81 13.7063C31.9562 14.4942 29.9625 14.9002 27.9482 14.9002V37.8395C30.1553 37.8395 32.3387 38.2952 34.3615 39.1781L54.9577 48.1671V4.71899Z" fill="#E3E1F8"/>
<path fill-rule="evenodd" clip-rule="evenodd" d="M27.9482 30.5686V37.8397C30.1553 37.8397 32.3387 38.2954 34.3615 39.1782L54.9577 48.1672V40.8961L34.3615 31.9071C32.3387 31.0243 30.1553 30.5686 27.9482 30.5686Z" fill="#BCB9DC"/>
<rect x="54.9578" y="0.0852051" width="7.27113" height="52.7157" rx="3.63556" fill="#3E7FFF"/>
<rect x="24.511" y="14.9734" width="3.49" height="22.9393" fill="#3165E5"/>
<rect x="11.1318" y="37.9128" width="13.3791" height="1.45509" fill="#3D3D5C"/>
</svg>
