<svg width="13" height="12" viewBox="0 0 13 12" fill="none" xmlns="http://www.w3.org/2000/svg">
<path d="M8.09199 1.638C7.98348 1.44396 7.82518 1.28236 7.6334 1.16988C7.44163 1.0574 7.22332 0.9981 7.00099 0.9981C6.77867 0.9981 6.56036 1.0574 6.36859 1.16988C6.17681 1.28236 6.01851 1.44396 5.90999 1.638L1.15699 10.14C1.05067 10.3302 0.995902 10.5448 0.998111 10.7627C1.00032 10.9805 1.05943 11.194 1.16959 11.382C1.27974 11.57 1.43711 11.7259 1.6261 11.8343C1.81509 11.9427 2.02912 11.9998 2.24699 12H11.751C11.9689 12 12.1831 11.943 12.3722 11.8347C12.5614 11.7263 12.7189 11.5704 12.8291 11.3824C12.9394 11.1944 12.9986 10.9809 13.0009 10.7629C13.0031 10.545 12.9484 10.3302 12.842 10.14L8.09199 1.638ZM7.74999 9.25C7.74999 9.44892 7.67097 9.63968 7.53032 9.78033C7.38967 9.92099 7.1989 10 6.99999 10C6.80108 10 6.61031 9.92099 6.46966 9.78033C6.32901 9.63968 6.24999 9.44892 6.24999 9.25C6.24999 9.05109 6.32901 8.86033 6.46966 8.71967C6.61031 8.57902 6.80108 8.5 6.99999 8.5C7.1989 8.5 7.38967 8.57902 7.53032 8.71967C7.67097 8.86033 7.74999 9.05109 7.74999 9.25ZM6.49999 7V4.5C6.49999 4.36739 6.55267 4.24022 6.64644 4.14645C6.74021 4.05268 6.86738 4 6.99999 4C7.1326 4 7.25978 4.05268 7.35355 4.14645C7.44731 4.24022 7.49999 4.36739 7.49999 4.5V7C7.49999 7.13261 7.44731 7.25979 7.35355 7.35356C7.25978 7.44732 7.1326 7.5 6.99999 7.5C6.86738 7.5 6.74021 7.44732 6.64644 7.35356C6.55267 7.25979 6.49999 7.13261 6.49999 7Z" fill="#EF5350"/>
</svg>
