<svg width="120" height="120" viewBox="0 0 120 120" fill="none" xmlns="http://www.w3.org/2000/svg">
<g clip-path="url(#clip0_8605_313413)">
<rect width="120" height="120" rx="60" fill="#292C2A"/>
<path d="M43.3799 79.6576C44.8607 78.0696 47.3485 77.9827 48.9365 79.4635L54.9716 85.0914C56.5596 86.5722 56.6465 89.06 55.1657 90.648V90.648C53.6848 92.236 51.1971 92.3229 49.6091 90.842L43.5739 85.2142C41.9859 83.7333 41.899 81.2456 43.3799 79.6576V79.6576Z" fill="#C4D8EC"/>
<path d="M46.0612 76.7822L52.6422 82.9192L47.2797 88.6698L40.6986 82.5329L46.0612 76.7822Z" fill="#A2BBD6"/>
<rect x="52.4695" y="67.5259" width="14.2602" height="7.86303" rx="3.93151" transform="rotate(43 52.4695 67.5259)" fill="#C4D8EC"/>
<path d="M53.7407 68.7113L59.4874 74.0702L54.1248 79.8208L48.3782 74.462L53.7407 68.7113Z" fill="#A2BBD6"/>
<rect x="59.8236" y="54.4154" width="10.6024" height="39.9441" rx="5.30122" transform="rotate(43 59.8236 54.4154)" fill="#C4D8EC"/>
<rect x="59.6394" y="59.708" width="3.56755" height="29.6383" rx="1.78377" transform="rotate(43 59.6394 59.708)" fill="#A9C1DA"/>
<ellipse cx="71.2819" cy="49.1665" rx="18.515" ry="18.5126" transform="rotate(43 71.2819 49.1665)" fill="#C4D8EC"/>
<ellipse cx="71.2818" cy="49.1666" rx="11.6546" ry="11.6532" transform="rotate(43 71.2818 49.1666)" fill="#A2BBD6"/>
<ellipse cx="71.2819" cy="49.1665" rx="4.81201" ry="4.81139" transform="rotate(43 71.2819 49.1665)" fill="white"/>
<g clip-path="url(#clip1_8605_313413)">
<circle cx="99" cy="99" r="21" fill="#EF5350"/>
<line x1="99.1666" y1="102.667" x2="99.1666" y2="98.8333" stroke="white" stroke-width="2" stroke-linecap="round"/>
<rect x="97.8334" y="94.3334" width="2.33333" height="2.33333" rx="1.16667" fill="white"/>
<circle cx="99" cy="99" r="8.33333" stroke="white" stroke-width="2"/>
</g>
</g>
<defs>
<clipPath id="clip0_8605_313413">
<rect width="120" height="120" fill="white"/>
</clipPath>
<clipPath id="clip1_8605_313413">
<rect width="42" height="42" fill="white" transform="translate(78 78)"/>
</clipPath>
</defs>
</svg>
