<svg width="16" height="14" viewBox="0 0 16 14" fill="none" xmlns="http://www.w3.org/2000/svg">
<path d="M13.6 7.8C13.3733 7.8 13.1835 7.7232 13.0304 7.5696C12.8768 7.41653 12.8 7.22666 12.8 7C12.8 6.77333 12.8768 6.5832 13.0304 6.4296C13.1835 6.27653 13.3733 6.2 13.6 6.2H15.2C15.4267 6.2 15.6165 6.27653 15.7696 6.4296C15.9232 6.5832 16 6.77333 16 7C16 7.22666 15.9232 7.41653 15.7696 7.5696C15.6165 7.7232 15.4267 7.8 15.2 7.8H13.6ZM13.12 12.92L11.84 11.96C11.6533 11.8267 11.5467 11.6533 11.52 11.44C11.4933 11.2267 11.5467 11.0267 11.68 10.84C11.8133 10.6533 11.9867 10.5467 12.2 10.52C12.4133 10.4933 12.6133 10.5467 12.8 10.68L14.08 11.64C14.2667 11.7733 14.3733 11.9467 14.4 12.16C14.4267 12.3733 14.3733 12.5733 14.24 12.76C14.1067 12.9467 13.9333 13.0533 13.72 13.08C13.5067 13.1067 13.3067 13.0533 13.12 12.92ZM12.8 3.32C12.6133 3.45333 12.4133 3.50666 12.2 3.48C11.9867 3.45333 11.8133 3.34666 11.68 3.16C11.5467 2.97333 11.4933 2.77333 11.52 2.56C11.5467 2.34666 11.6533 2.17333 11.84 2.04L13.12 1.08C13.3067 0.946663 13.5067 0.89333 13.72 0.919997C13.9333 0.946663 14.1067 1.05333 14.24 1.24C14.3733 1.42666 14.4267 1.62666 14.4 1.84C14.3733 2.05333 14.2667 2.22666 14.08 2.36L12.8 3.32ZM2.4 12.6V9.4H1.6C1.16 9.4 0.783467 9.2432 0.4704 8.9296C0.1568 8.61653 0 8.24 0 7.8V6.2C0 5.76 0.1568 5.3832 0.4704 5.0696C0.783467 4.75653 1.16 4.6 1.6 4.6H4.8L7.58 2.92C7.84667 2.76 8.1168 2.76 8.3904 2.92C8.66347 3.08 8.8 3.31333 8.8 3.62V10.38C8.8 10.6867 8.66347 10.92 8.3904 11.08C8.1168 11.24 7.84667 11.24 7.58 11.08L4.8 9.4H4V12.6H2.4ZM9.6 9.68V4.32C9.96 4.64 10.2501 5.03013 10.4704 5.4904C10.6901 5.95013 10.8 6.45333 10.8 7C10.8 7.54666 10.6901 8.04986 10.4704 8.5096C10.2501 8.96986 9.96 9.36 9.6 9.68ZM7.2 8.96V5.04L5.24 6.2H1.6V7.8H5.24L7.2 8.96Z" fill="#9E9E9E"/>
</svg>
