<svg width="32" height="33" viewBox="0 0 32 33" fill="none" xmlns="http://www.w3.org/2000/svg">
<path d="M26.6665 27.8332H5.33317C3.8665 27.8332 2.6665 26.6332 2.6665 25.1665V7.83317C2.6665 6.3665 3.8665 5.1665 5.33317 5.1665H26.6665C28.1332 5.1665 29.3332 6.3665 29.3332 7.83317V25.1665C29.3332 26.6332 28.1332 27.8332 26.6665 27.8332Z" fill="#057A55"/>
<path d="M23.3335 13.1665C24.4381 13.1665 25.3335 12.2711 25.3335 11.1665C25.3335 10.0619 24.4381 9.1665 23.3335 9.1665C22.2289 9.1665 21.3335 10.0619 21.3335 11.1665C21.3335 12.2711 22.2289 13.1665 23.3335 13.1665Z" fill="#F3FAF7"/>
<path d="M13.3333 11.1665L6 21.8332H20.6667L13.3333 11.1665Z" fill="#F3FAF7"/>
<path d="M20.6668 15.1667L15.3335 21.8334H26.0002L20.6668 15.1667Z" fill="#F3FAF7"/>
</svg>
