<svg width="25" height="24" viewBox="0 0 25 24" fill="none" xmlns="http://www.w3.org/2000/svg">
<path d="M6.88 2H18.12C20.5391 2 22.5 3.96094 22.5 6.38V17.62C22.5 20.0391 20.5391 22 18.12 22H6.88C4.46094 22 2.5 20.0391 2.5 17.62V6.38C2.5 3.96094 4.46094 2 6.88 2Z" fill="url(#paint0_linear_9644_183791)"/>
<path d="M8.90952 16.5164L8.9114 16.5171L8.22757 17.7014C7.97796 18.1338 7.42515 18.2819 6.9928 18.0323C6.56054 17.7827 6.41233 17.2299 6.66194 16.7975L7.16569 15.925L7.21405 15.8413C7.30038 15.7172 7.51343 15.503 7.9396 15.5433C7.9396 15.5433 8.94249 15.6521 9.01507 16.1734C9.01507 16.1734 9.02491 16.3449 8.90952 16.5164ZM18.6082 13.4914H16.4759C16.3306 13.4817 16.2673 13.4298 16.2423 13.3996L16.2407 13.3969L13.9581 9.4433L13.9551 9.44526L13.8183 9.24901C13.5939 8.90588 13.2376 9.78338 13.2376 9.78338C12.8123 10.7612 13.298 11.8728 13.4673 12.2088L16.6378 17.7003C16.8873 18.1325 17.4401 18.2807 17.8726 18.031C18.3048 17.7814 18.453 17.2286 18.2034 16.7963L17.4106 15.4231C17.3952 15.3899 17.3685 15.2996 17.5311 15.2992H18.6082C19.1074 15.2992 19.5121 14.8945 19.5121 14.3953C19.5121 13.896 19.1074 13.4914 18.6082 13.4914ZM14.4665 14.7202C14.4665 14.7202 14.5803 15.2992 14.1399 15.2992H6.25718C5.75796 15.2992 5.35327 14.8945 5.35327 14.3953C5.35327 13.896 5.75796 13.4914 6.25718 13.4914H8.28374C8.61093 13.4724 8.68843 13.2835 8.68843 13.2835L8.6903 13.2845L11.3356 8.7026L11.3348 8.70244C11.383 8.61393 11.3429 8.53026 11.3359 8.51705L10.4623 7.00385C10.2126 6.57158 10.3608 6.01869 10.7931 5.76916C11.2255 5.51955 11.7783 5.6676 12.0279 6.09994L12.433 6.80174L12.8375 6.10119C13.0871 5.66893 13.6399 5.52072 14.0723 5.77041C14.5046 6.02002 14.6527 6.57276 14.4031 7.0051L10.722 13.3809C10.7059 13.4197 10.701 13.4806 10.8208 13.4914H13.0211L13.0216 13.5128C13.0216 13.5128 14.2933 13.5326 14.4665 14.7202Z" fill="white"/>
<defs>
<linearGradient id="paint0_linear_9644_183791" x1="1002.5" y1="2" x2="1002.5" y2="2002" gradientUnits="userSpaceOnUse">
<stop stop-color="#17C9FB"/>
<stop offset="1" stop-color="#1A74E8"/>
</linearGradient>
</defs>
</svg>
