<svg width="14" height="14" viewBox="0 0 14 14" fill="none" xmlns="http://www.w3.org/2000/svg">
<path d="M13.3639 2.45431L8.81817 7L13.3639 11.5457C13.605 11.7868 13.7404 12.1138 13.7404 12.4548C13.7404 12.7958 13.605 13.1228 13.3639 13.364C13.1227 13.6051 12.7957 13.7405 12.4547 13.7405C12.1137 13.7405 11.7867 13.6051 11.5456 13.364L6.9999 8.81827L2.45421 13.364C2.21309 13.6051 1.88606 13.7405 1.54507 13.7405C1.20408 13.7405 0.877052 13.6051 0.635934 13.364C0.394816 13.1228 0.259357 12.7958 0.259357 12.4548C0.259357 12.1138 0.394816 11.7868 0.635934 11.5457L5.18162 7L0.635934 2.45431C0.394816 2.2132 0.259357 1.88617 0.259357 1.54518C0.259357 1.20418 0.394816 0.877157 0.635934 0.636038C0.877052 0.394921 1.20408 0.259462 1.54507 0.259462C1.88606 0.259461 2.21309 0.39492 2.45421 0.636039L6.9999 5.18173L11.5456 0.636039C11.7867 0.394921 12.1137 0.259461 12.4547 0.259461C12.7957 0.259461 13.1227 0.39492 13.3639 0.636038C13.605 0.877156 13.7404 1.20418 13.7404 1.54518C13.7404 1.88617 13.605 2.2132 13.3639 2.45431Z" fill="white"/>
</svg>
