<svg width="12" height="13" viewBox="0 0 12 13" fill="none" xmlns="http://www.w3.org/2000/svg">
<path d="M11.725 1.55009C11.6412 1.51006 11.548 1.49357 11.4556 1.50238C11.3631 1.51118 11.2748 1.54496 11.2 1.60009C9.43125 2.92509 7.93125 2.28759 6.2 1.54384C4.46875 0.800088 2.43125 -0.0749119 0.2 1.60009C0.137902 1.64666 0.0875002 1.70705 0.0527864 1.77648C0.0180725 1.84591 0 1.92247 0 2.00009V12.5001C0 12.6327 0.0526785 12.7599 0.146447 12.8536C0.240215 12.9474 0.367392 13.0001 0.5 13.0001C0.632608 13.0001 0.759785 12.9474 0.853553 12.8536C0.947321 12.7599 1 12.6327 1 12.5001V9.75634C2.68125 8.62509 4.13125 9.24384 5.8 9.96259C6.81875 10.3938 7.9125 10.8626 9.0875 10.8626C9.95 10.8626 10.8562 10.6126 11.8 9.90009C11.8617 9.85318 11.9119 9.79272 11.9466 9.72337C11.9812 9.65402 11.9995 9.57763 12 9.50009V2.00009C11.9992 1.9072 11.9733 1.81626 11.9248 1.737C11.8764 1.65774 11.8073 1.59313 11.725 1.55009ZM7.75 9.64384V6.30009C6.56875 5.96259 5.43125 5.30634 4.25 4.96884V8.31884C3.23125 8.05634 2.15 8.01884 1 8.60009V5.30009C2.14375 4.63759 3.2125 4.67509 4.25 4.96884V1.85634C4.77735 2.02997 5.29479 2.23236 5.8 2.46259C6.425 2.72509 7.075 3.00634 7.75 3.18134V6.30009C8.7875 6.59384 9.85625 6.63134 11 5.96884V9.24384C9.85625 10.0126 8.81875 9.97509 7.75 9.64384Z" fill="#16A75C"/>
</svg>
