<svg width="14" height="12" viewBox="0 0 14 12" fill="none" xmlns="http://www.w3.org/2000/svg">
<path d="M8.33325 0C8.86368 0 9.37239 0.210714 9.74747 0.585787C10.1225 0.960859 10.3333 1.46957 10.3333 2H12.3333C12.6869 2 13.026 2.14048 13.2761 2.39052C13.5261 2.64057 13.6666 2.97971 13.6666 3.33333V10.6667C13.6666 11.0203 13.5261 11.3594 13.2761 11.6095C13.026 11.8595 12.6869 12 12.3333 12H1.66659C1.31296 12 0.973825 11.8595 0.723776 11.6095C0.473728 11.3594 0.333252 11.0203 0.333252 10.6667V3.33333C0.333252 2.97971 0.473728 2.64057 0.723776 2.39052C0.973825 2.14048 1.31296 2 1.66659 2H3.66658C3.66658 1.46957 3.8773 0.960859 4.25237 0.585787C4.62744 0.210714 5.13615 0 5.66658 0H8.33325ZM6.33325 6H1.66659V10.6667H12.3333V6H7.66658V6.66667C7.6664 6.83659 7.60133 7.00002 7.48469 7.12358C7.36804 7.24714 7.20862 7.32149 7.03899 7.33145C6.86936 7.34141 6.70233 7.28622 6.57203 7.17716C6.44173 7.0681 6.35799 6.9134 6.33792 6.74467L6.33325 6.66667V6ZM12.3333 3.33333H1.66659V4.66667H12.3333V3.33333ZM8.33325 1.33333H5.66658C5.5033 1.33335 5.34569 1.3933 5.22367 1.50181C5.10165 1.61032 5.02369 1.75983 5.00458 1.922L4.99992 2H8.99992C8.9999 1.83671 8.93995 1.67911 8.83144 1.55709C8.72294 1.43506 8.57342 1.3571 8.41125 1.338L8.33325 1.33333Z" fill="#1E88E5"/>
</svg>
