<svg width="120" height="121" viewBox="0 0 120 121" fill="none" xmlns="http://www.w3.org/2000/svg">
<g clip-path="url(#clip0_10020_156586)">
<circle cx="60" cy="60.5" r="60" fill="#FAFAFA"/>
<g clip-path="url(#clip1_10020_156586)">
<rect x="25.7417" y="85.4237" width="68.5169" height="6.26621" fill="#232333"/>
<rect x="25.7417" y="85.4237" width="57.262" height="6.26621" fill="#2D2E47"/>
<rect x="19.02" y="56.9236" width="81.9604" height="30.066" rx="5.59702" fill="#383858"/>
<rect x="19.02" y="56.9236" width="63.9837" height="30.066" rx="5.59702" fill="#4F517B"/>
<circle cx="69.3331" cy="71.3664" r="3.49814" fill="#383858"/>
<circle cx="59.0846" cy="71.3664" r="3.49814" fill="#383858"/>
<path fill-rule="evenodd" clip-rule="evenodd" d="M24.5742 66.9876C24.5742 65.9497 25.2998 65.1083 26.1949 65.1083H45.1302C46.0253 65.1083 46.7509 65.9497 46.7509 66.9876C46.7509 68.0254 46.0253 68.8668 45.1302 68.8668H26.1949C25.2998 68.8668 24.5742 68.0254 24.5742 66.9876Z" fill="#363555"/>
<path fill-rule="evenodd" clip-rule="evenodd" d="M24.5269 75.7459C24.5269 74.7081 25.2525 73.8667 26.1476 73.8667H45.0828C45.9779 73.8667 46.7035 74.7081 46.7035 75.7459C46.7035 76.7838 45.9779 77.6251 45.0828 77.6251H26.1476C25.2525 77.6251 24.5269 76.7838 24.5269 75.7459Z" fill="#363555"/>
<rect x="19.02" y="90.4339" width="81.9604" height="30.066" rx="5.59702" fill="#383858"/>
<rect x="19.02" y="90.4339" width="63.9837" height="30.066" rx="5.59702" fill="#4F517B"/>
<circle cx="69.3331" cy="104.877" r="3.49814" fill="#1FB767"/>
<circle cx="59.0846" cy="104.877" r="3.49814" fill="#EF5350"/>
<path fill-rule="evenodd" clip-rule="evenodd" d="M24.5742 100.498C24.5742 99.4606 25.2998 98.6192 26.1949 98.6192H45.1302C46.0253 98.6192 46.7509 99.4606 46.7509 100.498C46.7509 101.536 46.0253 102.378 45.1302 102.378H26.1949C25.2998 102.378 24.5742 101.536 24.5742 100.498Z" fill="#363555"/>
<path fill-rule="evenodd" clip-rule="evenodd" d="M24.5269 109.257C24.5269 108.219 25.2525 107.377 26.1476 107.377H45.0828C45.9779 107.377 46.7035 108.219 46.7035 109.257C46.7035 110.294 45.9779 111.136 45.0828 111.136H26.1476C25.2525 111.136 24.5269 110.294 24.5269 109.257Z" fill="#363555"/>
</g>
<g clip-path="url(#clip2_10020_156586)">
<path d="M45.6084 39.4963V19.7852C45.6084 17.9734 47.0818 16.5 48.8936 16.5H71.8901C73.7019 16.5 75.1753 17.9734 75.1753 19.7852V39.4963C75.1753 41.3081 73.7019 42.7815 71.8901 42.7815H66.141L61.628 47.9391C60.9736 48.687 59.8101 48.687 59.1557 47.9391L54.6427 42.7815H48.8936C47.0818 42.7815 45.6084 41.3081 45.6084 39.4963Z" fill="#EF5350"/>
<path d="M60.3917 21.9399C64.6939 21.9399 68.1813 25.4273 68.1813 29.7294C68.1813 34.0316 64.6939 37.519 60.3917 37.519C56.0895 37.519 52.6021 34.0316 52.6021 29.7294C52.6021 25.4273 56.0895 21.9399 60.3917 21.9399ZM58.7395 26.975C58.5996 26.8339 58.4111 26.7515 58.2125 26.7447C58.0139 26.738 57.8202 26.8074 57.6711 26.9388C57.522 27.0702 57.4287 27.2536 57.4104 27.4515C57.3921 27.6494 57.4501 27.8468 57.5726 28.0033L57.638 28.0773L59.2894 29.7287L57.638 31.3816C57.4968 31.5215 57.4145 31.71 57.4077 31.9086C57.401 32.1072 57.4704 32.3009 57.6018 32.45C57.7332 32.5991 57.9166 32.6923 58.1145 32.7107C58.3124 32.729 58.5098 32.6709 58.6663 32.5485L58.7395 32.4838L60.3917 30.8309L62.0438 32.4838C62.1837 32.625 62.3722 32.7074 62.5709 32.7141C62.7695 32.7209 62.9632 32.6515 63.1123 32.5201C63.2614 32.3887 63.3546 32.2053 63.3729 32.0074C63.3912 31.8095 63.3332 31.6121 63.2107 31.4556L63.1461 31.3816L61.4931 29.7294L63.1461 28.0773C63.2873 27.9374 63.3697 27.7489 63.3764 27.5503C63.3831 27.3517 63.3137 27.158 63.1823 27.0089C63.0509 26.8598 62.8675 26.7665 62.6696 26.7482C62.4718 26.7299 62.2744 26.7879 62.1178 26.9104L62.0438 26.975L60.3917 28.628L58.7395 26.975Z" fill="white"/>
</g>
</g>
<defs>
<clipPath id="clip0_10020_156586">
<rect y="0.5" width="120" height="120" rx="60" fill="white"/>
</clipPath>
<clipPath id="clip1_10020_156586">
<rect y="0.5" width="120" height="120" rx="60" fill="white"/>
</clipPath>
<clipPath id="clip2_10020_156586">
<rect width="29.5669" height="32" fill="white" transform="translate(45.6084 16.5)"/>
</clipPath>
</defs>
</svg>
