<svg width="16" height="16" viewBox="0 0 16 16" fill="none" xmlns="http://www.w3.org/2000/svg">
<path d="M13.9998 12.1L12.6664 10.7666V3.33329H11.3331V4.66663C11.3331 4.85552 11.2691 5.01396 11.1411 5.14196C11.0131 5.26996 10.8549 5.33374 10.6664 5.33329H7.23311L3.89977 1.99996H6.11644C6.23866 1.61107 6.47755 1.29152 6.83311 1.04129C7.18866 0.791072 7.57755 0.666183 7.99977 0.666627C8.44422 0.666627 8.84155 0.791738 9.19177 1.04196C9.542 1.29218 9.778 1.61152 9.89977 1.99996H12.6664C13.0331 1.99996 13.3471 2.13063 13.6084 2.39196C13.8698 2.65329 14.0002 2.96707 13.9998 3.33329V12.1ZM7.99977 3.33329C8.18866 3.33329 8.34711 3.26929 8.47511 3.14129C8.60311 3.01329 8.66688 2.85507 8.66644 2.66663C8.66644 2.47774 8.60244 2.31929 8.47444 2.19129C8.34644 2.06329 8.18822 1.99952 7.99977 1.99996C7.81088 1.99996 7.65244 2.06396 7.52444 2.19196C7.39644 2.31996 7.33266 2.47818 7.33311 2.66663C7.33311 2.85552 7.39711 3.01396 7.52511 3.14196C7.65311 3.26996 7.81133 3.33374 7.99977 3.33329ZM10.7664 12.6666L3.33311 5.23329V12.6666H10.7664ZM3.33311 14C2.96644 14 2.65244 13.8693 2.39111 13.608C2.12977 13.3466 1.99933 13.0329 1.99977 12.6666V3.89996L1.38311 3.28329C1.24977 3.14996 1.18311 2.99174 1.18311 2.80863C1.18311 2.62552 1.24977 2.46707 1.38311 2.33329C1.51644 2.19996 1.67488 2.13329 1.85844 2.13329C2.04199 2.13329 2.20022 2.19996 2.33311 2.33329L13.6664 13.6666C13.7998 13.8 13.8664 13.9555 13.8664 14.1333C13.8664 14.3111 13.7998 14.4666 13.6664 14.6C13.5331 14.7333 13.3747 14.8 13.1911 14.8C13.0076 14.8 12.8493 14.7333 12.7164 14.6L12.0998 14H3.33311Z" fill="#F44336"/>
</svg>
