<svg width="200" height="201" viewBox="0 0 200 201" fill="none" xmlns="http://www.w3.org/2000/svg">
<g clip-path="url(#clip0_9644_153384)">
<circle cx="100.176" cy="123.968" r="76.5318" fill="#1F2121"/>
<circle cx="100.176" cy="123.968" r="62.9787" fill="#292C2A"/>
<g clip-path="url(#clip1_9644_153384)">
<path d="M49.0111 98.2463C49.0111 85.7504 65.9656 78.5223 65.9656 78.5223C65.9656 78.5223 95.217 66.4939 112.121 73.2061C127.868 79.4591 138.442 107.696 138.442 107.696C138.442 107.696 126.017 142.71 122.582 146.003C119.147 149.296 108.597 149.885 98.2327 148.292C84.8208 146.23 82.9554 143.09 79.7695 140.86C76.5836 138.63 49.0111 110.742 49.0111 98.2463Z" fill="#FBC47F"/>
<rect x="134.267" y="29.4406" width="16.3836" height="36.9101" rx="8.19182" transform="rotate(30.5716 134.267 29.4406)" fill="#FBC47F"/>
<rect x="68.722" y="5.32971" width="63.0102" height="121.675" rx="8.69107" fill="#292C2A"/>
<rect x="73.0675" y="9.67529" width="54.3192" height="112.984" rx="5.79404" fill="white"/>
<path d="M89.9258 9.31604H110.815V9.68296C110.815 11.2829 109.518 12.58 107.918 12.58H92.8228C91.2228 12.58 89.9258 11.2829 89.9258 9.68296V9.31604Z" fill="#292C2A"/>
<g clip-path="url(#clip2_9644_153384)">
<path d="M109.741 51.5013C109.762 51.5432 109.845 51.606 109.971 51.6897C109.824 51.5851 109.741 51.5013 109.741 51.5013Z" fill="#FEC132"/>
<path d="M108.41 61.0636C105.291 59.389 101.431 61.6954 100.991 61.9466L100.907 62.0303L93.7695 70.5287C93.7276 70.5915 93.6857 70.6543 93.6439 70.7171C90.6925 75.1966 93.602 78.5457 94.3974 79.1318L99.2746 83.067L111.729 68.2053C111.604 68.3518 111.541 68.4355 111.541 68.4355C111.541 68.4355 112.973 63.5126 108.41 61.0636Z" fill="#FEC132"/>
<path d="M116.565 61.2976C116.795 60.251 116.711 59.2672 116.397 58.3881C116.648 59.2463 116.753 60.251 116.565 61.2976Z" fill="#FEC132"/>
<path d="M91.9065 56.9019C95.2138 58.6811 99.3583 56.0437 99.3583 56.0437L90.6297 66.447L99.4839 55.8972L99.6305 55.8344L110.85 42.4588L106.057 38.5654C104.529 37.2676 101.096 36.3675 98.1234 38.7538L88.9132 49.6594C88.9132 49.6594 87.3433 54.4529 91.9065 56.9019Z" fill="#1BA7E0"/>
<path d="M90.6925 66.4888L90.7553 66.426L90.6506 66.4679L90.6925 66.4888Z" fill="#1BA7E0"/>
<path d="M99.3584 56.0437C99.3584 56.0437 95.2138 58.7021 91.9065 56.9019C87.3433 54.4529 88.9132 49.6594 88.9132 49.6594L85.2083 53.9924C82.6755 56.9857 83.9733 60.879 85.3129 62.0722C86.6316 63.2234 90.6087 66.5098 90.6087 66.5098L90.6506 66.4679L99.3584 56.0437Z" fill="#1593B7"/>
<path d="M116.565 61.2976C116.753 60.251 116.648 59.2462 116.397 58.388C116.146 57.5089 115.727 56.7553 115.33 56.2739C114.45 55.2063 110.913 52.4433 109.971 51.7107C109.845 51.6269 109.762 51.5641 109.741 51.5432L101.012 61.9674C101.452 61.6953 105.303 59.4555 108.422 61.1301C112.985 63.5792 111.538 68.4403 111.538 68.4403C111.538 68.4403 111.593 68.3609 111.764 68.2292C112.434 67.4547 114.618 64.9398 115.413 63.9141C116.041 63.0349 116.397 62.1558 116.565 61.2976Z" fill="#FBA919"/>
<path d="M109.72 51.5223C109.741 51.5223 109.741 51.5223 109.72 51.5223H109.699L99.6305 55.8343L99.4839 55.8971L90.6297 66.4469L90.5878 66.4888L90.6506 66.4679L90.7343 66.426L100.907 62.0302L100.991 61.9465L109.72 51.5223Z" fill="#039058"/>
</g>
<rect x="136.274" y="75.311" width="13.9342" height="29.9526" rx="6.96712" transform="rotate(48.7608 136.274 75.311)" fill="#FBC47F"/>
<rect x="134.81" y="59.6907" width="13.9342" height="27.3842" rx="6.96712" transform="rotate(48.7608 134.81 59.6907)" fill="#FBC47F"/>
<rect x="138.99" y="89.4763" width="13.1527" height="26.8557" rx="6.57637" transform="rotate(48.3961 138.99 89.4763)" fill="#FBC47F"/>
<rect x="56.9489" y="56.4963" width="17.1044" height="48.5575" rx="8.55222" transform="rotate(11.4098 56.9489 56.4963)" fill="#FBC47F"/>
<path d="M79.5874 137.832H123.218C123.218 137.832 123.218 200.48 123.218 201.5C103.1 201.697 83.7651 201.697 78.1756 201.697C78.1756 207.475 79.5874 137.832 79.5874 137.832Z" fill="#FBC47F"/>
<rect x="78.1756" y="149.499" width="46.348" height="18.9309" rx="1.95837" fill="#16A75C"/>
<rect x="78.1756" y="149.499" width="5.58839" height="18.9309" rx="1.95837" fill="#069550"/>
<rect x="116.69" y="149.499" width="7.83347" height="18.9309" rx="1.95837" fill="#069550"/>
</g>
<g clip-path="url(#clip3_9644_153384)">
<g clip-path="url(#clip4_9644_153384)">
<path d="M24.5457 159.127C24.1877 156.953 25.66 154.9 27.8342 154.542L35.7079 153.246C37.8821 152.888 39.9349 154.36 40.293 156.534L40.8981 160.209C41.2561 162.383 39.7838 164.436 37.6096 164.794L30.5233 165.961L26.2745 169.626L24.5457 159.127Z" fill="#FFB629"/>
<path d="M46.6539 146.052C46.2959 143.877 44.243 142.405 42.0688 142.763L32.8829 144.276C30.7086 144.634 29.2363 146.687 29.5944 148.861L30.891 156.735C31.249 158.909 33.3019 160.381 35.4761 160.023L43.481 158.705L49.2471 161.799L46.6539 146.052Z" fill="#1E88E5"/>
</g>
</g>
<g clip-path="url(#clip5_9644_153384)">
<g clip-path="url(#clip6_9644_153384)">
<path d="M171.537 117.158L185.391 120.87C186.389 121.138 186.981 122.163 186.714 123.161L181.872 141.231C181.604 142.229 180.578 142.821 179.581 142.554L167.534 139.326C166.536 139.059 165.944 138.033 166.211 137.035L171.537 117.158Z" fill="#16A75C"/>
<path d="M166.897 134.475C166.964 134.226 167.22 134.078 167.47 134.144L184.636 138.744C184.886 138.811 185.034 139.067 184.967 139.317L184.523 140.973C184.122 142.47 182.583 143.359 181.086 142.958L168.136 139.488C166.806 139.131 166.016 137.763 166.372 136.433L166.897 134.475Z" fill="#4DC27E"/>
<path d="M167.018 134.023L170.632 134.992L169.825 138.003C169.558 139.001 168.532 139.594 167.534 139.326C166.536 139.059 165.944 138.033 166.211 137.035L167.018 134.023Z" fill="#16A75C"/>
<path d="M168.805 117.717C168.983 117.052 169.667 116.657 170.332 116.835L171.537 117.158L170.892 119.567L168.482 118.922L168.805 117.717Z" fill="#16A75C"/>
<path d="M167.439 117.997C167.706 116.999 168.732 116.406 169.73 116.674C170.728 116.941 171.32 117.967 171.053 118.965L169.923 123.181L166.761 122.334C166.511 122.267 166.363 122.011 166.43 121.761L167.439 117.997Z" fill="#069550"/>
</g>
</g>
<g clip-path="url(#clip7_9644_153384)">
<g clip-path="url(#clip8_9644_153384)">
<rect x="19.3333" y="32.7169" width="21.8343" height="21.8343" rx="4.85206" transform="rotate(-11.9812 19.3333 32.7169)" fill="#EF5350"/>
<g clip-path="url(#clip9_9644_153384)">
<path d="M33.4754 38.551C33.3815 38.1084 33.1156 37.7213 32.7362 37.4748C32.3569 37.2283 31.8952 37.1425 31.4526 37.2365L27.9299 37.984C27.4874 38.0779 27.1003 38.3438 26.8537 38.7232C26.6072 39.1025 26.5215 39.5642 26.6154 40.0068L27.5597 44.4565C27.6536 44.899 27.9195 45.2862 28.2988 45.5327C28.6782 45.7792 29.1399 45.8649 29.5824 45.771L33.1051 45.0235C33.5477 44.9295 33.9348 44.6637 34.1813 44.2843C34.4278 43.905 34.5136 43.4433 34.4197 43.0007L33.4754 38.551ZM34.8028 42.0669L36.9575 43.0667C37.4862 43.3121 38.0687 42.8483 37.9476 42.278L36.9929 37.779C36.8718 37.2083 36.1515 37.0209 35.7677 37.46L34.2047 39.2487L34.8028 42.0669Z" fill="white"/>
</g>
</g>
</g>
<circle cx="178.692" cy="65.3277" r="3.26744" stroke="#F44336" stroke-width="1.5"/>
<circle cx="19.3076" cy="117.025" r="3.26744" stroke="#FFB900" stroke-width="1.5"/>
<rect x="159.071" y="17.7463" width="7.36531" height="7.36531" rx="2" transform="rotate(28.0978 159.071 17.7463)" fill="#FFB900"/>
<path d="M160.805 168.914C161.197 168.686 161.689 168.968 161.691 169.421L161.705 174.02C161.706 174.473 161.216 174.758 160.823 174.533L156.833 172.246C156.439 172.02 156.438 171.453 156.83 171.225L160.805 168.914Z" stroke="#1FB767" stroke-width="1.5"/>
<path d="M20.3731 75.2908C20.1336 74.9056 20.4009 74.4057 20.8542 74.3909L25.4504 74.2408C25.9037 74.226 26.203 74.7075 25.9892 75.1074L23.821 79.1629C23.6072 79.5628 23.0406 79.5813 22.8011 79.1962L20.3731 75.2908Z" stroke="#1E88E5" stroke-width="1.5"/>
</g>
<defs>
<clipPath id="clip0_9644_153384">
<rect width="200" height="200" fill="white" transform="translate(0 0.5)"/>
</clipPath>
<clipPath id="clip1_9644_153384">
<rect y="0.5" width="200" height="200" rx="100" fill="white"/>
</clipPath>
<clipPath id="clip2_9644_153384">
<rect width="32.9262" height="45.7994" fill="white" transform="translate(83.764 37.2676)"/>
</clipPath>
<clipPath id="clip3_9644_153384">
<rect width="31.9188" height="31.9188" fill="white" transform="translate(17.7996 142.716) rotate(-9.3514)"/>
</clipPath>
<clipPath id="clip4_9644_153384">
<rect width="23.9391" height="23.9391" fill="white" transform="translate(22.3846 146.005) rotate(-9.3514)"/>
</clipPath>
<clipPath id="clip5_9644_153384">
<rect width="29.9318" height="29.9318" fill="white" transform="translate(165.277 111.607) rotate(15)"/>
</clipPath>
<clipPath id="clip6_9644_153384">
<rect width="22.4488" height="22.4488" fill="white" transform="translate(167.923 116.19) rotate(15)"/>
</clipPath>
<clipPath id="clip7_9644_153384">
<rect width="29.1124" height="29.1124" fill="white" transform="translate(15.0181 29.9126) rotate(-11.9812)"/>
</clipPath>
<clipPath id="clip8_9644_153384">
<rect width="21.8343" height="21.8343" fill="white" transform="translate(19.3333 32.7169) rotate(-11.9812)"/>
</clipPath>
<clipPath id="clip9_9644_153384">
<rect width="12.1301" height="12.1301" fill="white" transform="translate(25.0869 36.4561) rotate(-11.9812)"/>
</clipPath>
</defs>
</svg>
