<svg width="17" height="14" viewBox="0 0 17 14" fill="none" xmlns="http://www.w3.org/2000/svg">
<path d="M14.3332 0.333374H2.6665C2.00346 0.333374 1.36758 0.596766 0.898737 1.06561C0.429896 1.53445 0.166504 2.17033 0.166504 2.83337V11.1667C0.166504 11.8297 0.429896 12.4656 0.898737 12.9345C1.36758 13.4033 2.00346 13.6667 2.6665 13.6667H14.3332C14.9962 13.6667 15.6321 13.4033 16.1009 12.9345C16.5698 12.4656 16.8332 11.8297 16.8332 11.1667V2.83337C16.8332 2.17033 16.5698 1.53445 16.1009 1.06561C15.6321 0.596766 14.9962 0.333374 14.3332 0.333374ZM2.6665 12C2.44549 12 2.23353 11.9122 2.07725 11.756C1.92097 11.5997 1.83317 11.3877 1.83317 11.1667V9.15004L4.58317 6.40837C4.73894 6.25568 4.94838 6.17016 5.1665 6.17016C5.38463 6.17016 5.59406 6.25568 5.74984 6.40837L11.3415 12H2.6665ZM15.1665 11.1667C15.1665 11.3877 15.0787 11.5997 14.9224 11.756C14.7661 11.9122 14.5542 12 14.3332 12H13.6915L10.5165 8.80837L11.2498 8.07504C11.4056 7.92235 11.615 7.83683 11.8332 7.83683C12.0513 7.83683 12.2607 7.92235 12.4165 8.07504L15.1665 10.8167V11.1667ZM15.1665 8.46671L13.5998 6.90837C13.1249 6.45207 12.4918 6.19723 11.8332 6.19723C11.1745 6.19723 10.5415 6.45207 10.0665 6.90837L9.33317 7.64171L6.93317 5.24171C6.45822 4.7854 5.82513 4.53056 5.1665 4.53056C4.50787 4.53056 3.87479 4.7854 3.39984 5.24171L1.83317 6.80004V2.83337C1.83317 2.61236 1.92097 2.4004 2.07725 2.24412C2.23353 2.08784 2.44549 2.00004 2.6665 2.00004H14.3332C14.5542 2.00004 14.7661 2.08784 14.9224 2.24412C15.0787 2.4004 15.1665 2.61236 15.1665 2.83337V8.46671Z" fill="#16A75C"/>
</svg>
