<svg width="18" height="18" viewBox="0 0 18 18" fill="none" xmlns="http://www.w3.org/2000/svg">
<path fill-rule="evenodd" clip-rule="evenodd" d="M1.5 2.5C1.5 1.94772 1.94772 1.5 2.5 1.5H8.7C8.86569 1.5 9 1.63431 9 1.8V4.5C9 5.60457 9.89543 6.5 11 6.5H14V7.75H15.25V5.56266C15.25 5.03416 15.0408 4.52715 14.6682 4.1524L11.374 0.839742C10.9986 0.46225 10.4882 0.25 9.9558 0.25H2.25C1.14543 0.25 0.25 1.14543 0.25 2.25V15.75C0.25 16.8546 1.14543 17.75 2.25 17.75H5.25V16.5H2.5C1.94772 16.5 1.5 16.0523 1.5 15.5V2.5ZM10.25 1.98284C10.25 1.80466 10.4654 1.71543 10.5914 1.84142L13.6586 4.90858C13.7846 5.03457 13.6953 5.25 13.5172 5.25H11.25C10.6977 5.25 10.25 4.80228 10.25 4.25V1.98284ZM8.5 9C7.39543 9 6.5 9.89543 6.5 11V15.75C6.5 16.8546 7.39543 17.75 8.5 17.75H15.75C16.8546 17.75 17.75 16.8546 17.75 15.75V11C17.75 9.89543 16.8546 9 15.75 9H8.5ZM15.5 10.25C16.0523 10.25 16.5 10.6977 16.5 11.25V15.25L14.7761 13.5579C14.5751 13.3605 14.3047 13.25 14.023 13.25C13.7363 13.25 13.4614 13.3645 13.2596 13.5682L12.125 14.7125L9.77628 12.3638C9.57537 12.1629 9.30288 12.05 9.01875 12.05C8.73462 12.05 8.46213 12.1629 8.26122 12.3638L7.75 12.875V11.25C7.75 10.6977 8.19772 10.25 8.75 10.25H15.5ZM13 15.5875L13.8004 14.7871C13.9175 14.67 14.1075 14.67 14.2246 14.7871L15.9375 16.5H13.9125L13 15.5875ZM8.75 16.5C8.19772 16.5 7.75 16.0523 7.75 15.5V14.6375L8.78913 13.5984C8.9058 13.4817 9.09477 13.4811 9.21212 13.5971L12.15 16.5H8.75ZM14.625 12.125C14.7908 12.125 14.9497 12.0592 15.0669 11.9419C15.1842 11.8247 15.25 11.6658 15.25 11.5C15.25 11.3342 15.1842 11.1753 15.0669 11.0581C14.9497 10.9408 14.7908 10.875 14.625 10.875C14.4592 10.875 14.3003 10.9408 14.1831 11.0581C14.0658 11.1753 14 11.3342 14 11.5C14 11.6658 14.0658 11.8247 14.1831 11.9419C14.3003 12.0592 14.4592 12.125 14.625 12.125Z" fill="#757575" stroke="#757575" stroke-width="0.15"/>
</svg>
