<svg width="18" height="18" viewBox="0 0 18 18" fill="none" xmlns="http://www.w3.org/2000/svg">
<path d="M9.00003 0.666748C7.35185 0.666748 5.74068 1.15549 4.37027 2.07117C2.99986 2.98685 1.93176 4.28834 1.30103 5.81105C0.670298 7.33377 0.50527 9.00933 0.826813 10.6258C1.14836 12.2423 1.94203 13.7272 3.10747 14.8926C4.27291 16.0581 5.75776 16.8517 7.37427 17.1733C8.99078 17.4948 10.6663 17.3298 12.1891 16.6991C13.7118 16.0683 15.0133 15.0002 15.9289 13.6298C16.8446 12.2594 17.3334 10.6483 17.3334 9.00008C17.3334 7.90573 17.1178 6.8221 16.699 5.81105C16.2802 4.80001 15.6664 3.88135 14.8926 3.10752C14.1188 2.3337 13.2001 1.71987 12.1891 1.30109C11.178 0.882296 10.0944 0.666748 9.00003 0.666748ZM9.00003 15.6667C7.68148 15.6667 6.39255 15.2758 5.29622 14.5432C4.19989 13.8107 3.34541 12.7695 2.84083 11.5513C2.33624 10.3331 2.20422 8.99269 2.46146 7.69948C2.71869 6.40627 3.35363 5.21839 4.28598 4.28604C5.21833 3.35369 6.40622 2.71875 7.69942 2.46151C8.99263 2.20428 10.3331 2.3363 11.5512 2.84088C12.7694 3.34547 13.8106 4.19995 14.5432 5.29628C15.2757 6.39261 15.6667 7.68154 15.6667 9.00008C15.6667 10.7682 14.9643 12.4639 13.7141 13.7141C12.4638 14.9644 10.7681 15.6667 9.00003 15.6667Z" fill="#16A75C"/>
<path d="M9.00002 6.50016C9.46026 6.50016 9.83335 6.12707 9.83335 5.66683C9.83335 5.20659 9.46026 4.8335 9.00002 4.8335C8.53978 4.8335 8.16669 5.20659 8.16669 5.66683C8.16669 6.12707 8.53978 6.50016 9.00002 6.50016Z" fill="#16A75C"/>
<path d="M9.00002 7.3335C8.77901 7.3335 8.56705 7.42129 8.41076 7.57757C8.25448 7.73385 8.16669 7.94582 8.16669 8.16683V12.3335C8.16669 12.5545 8.25448 12.7665 8.41076 12.9228C8.56705 13.079 8.77901 13.1668 9.00002 13.1668C9.22103 13.1668 9.433 13.079 9.58928 12.9228C9.74556 12.7665 9.83335 12.5545 9.83335 12.3335V8.16683C9.83335 7.94582 9.74556 7.73385 9.58928 7.57757C9.433 7.42129 9.22103 7.3335 9.00002 7.3335Z" fill="#16A75C"/>
</svg>
