<svg width="17" height="18" viewBox="0 0 17 18" fill="none" xmlns="http://www.w3.org/2000/svg">
<path d="M7.49967 1.66667H7.91634C8.05523 1.66667 8.19412 1.68056 8.33301 1.70834V3.39584C8.19412 3.36806 8.05856 3.35056 7.92634 3.34334C7.79412 3.33611 7.6519 3.33278 7.49967 3.33334C6.0969 3.33334 4.91273 3.81611 3.94717 4.78167C2.98162 5.74723 2.49912 6.98667 2.49967 8.5C2.49967 9.48611 2.9094 10.6147 3.72884 11.8858C4.54829 13.1569 5.80523 14.57 7.49967 16.125C9.19412 14.5694 10.4511 13.1561 11.2705 11.885C12.09 10.6139 12.4997 9.48556 12.4997 8.5V8.33334H14.1663V8.5C14.1663 9.41667 13.9544 10.3264 13.5305 11.2292C13.1066 12.1319 12.6 12.9792 12.0105 13.7708C11.42 14.5625 10.8088 15.2675 10.1772 15.8858C9.54551 16.5042 9.02106 16.9936 8.60384 17.3542C8.45106 17.4931 8.27745 17.5972 8.08301 17.6667C7.88856 17.7361 7.69412 17.7708 7.49967 17.7708C7.30523 17.7708 7.11079 17.7361 6.91634 17.6667C6.7219 17.5972 6.54829 17.4931 6.39551 17.3542C5.49273 16.5208 4.69412 15.7083 3.99967 14.9167C3.30523 14.125 2.72551 13.3578 2.26051 12.615C1.79495 11.8717 1.44079 11.1564 1.19801 10.4692C0.95523 9.78195 0.833563 9.12556 0.833008 8.5C0.833008 6.41667 1.50329 4.75695 2.84384 3.52084C4.1844 2.28472 5.73634 1.66667 7.49967 1.66667ZM7.49967 10C7.95801 10 8.35051 9.83667 8.67718 9.51C9.00384 9.18334 9.1669 8.79111 9.16634 8.33334C9.16634 7.875 9.00301 7.4825 8.67634 7.15584C8.34967 6.82917 7.95745 6.66611 7.49967 6.66667C7.04134 6.66667 6.64884 6.83 6.32217 7.15667C5.99551 7.48334 5.83245 7.87556 5.83301 8.33334C5.83301 8.79167 5.99634 9.18417 6.32301 9.51084C6.64967 9.8375 7.0419 10.0006 7.49967 10ZM12.4997 4.16667V5.83334C12.4997 6.06945 12.5797 6.2675 12.7397 6.4275C12.8997 6.5875 13.0975 6.66723 13.333 6.66667C13.5691 6.66667 13.7672 6.58667 13.9272 6.42667C14.0872 6.26667 14.1669 6.06889 14.1663 5.83334V4.16667H15.833C16.0691 4.16667 16.2672 4.08667 16.4272 3.92667C16.5872 3.76667 16.6669 3.56889 16.6663 3.33334C16.6663 3.09723 16.5863 2.89917 16.4263 2.73917C16.2663 2.57917 16.0686 2.49945 15.833 2.5H14.1663V0.833336C14.1663 0.597225 14.0863 0.39917 13.9263 0.23917C13.7663 0.0791695 13.5686 -0.000552672 13.333 2.88351e-06C13.0969 2.88351e-06 12.8988 0.0800029 12.7388 0.240003C12.5788 0.400003 12.4991 0.597781 12.4997 0.833336V2.5H10.833C10.5969 2.5 10.3988 2.58 10.2388 2.74C10.0788 2.9 9.99912 3.09778 9.99967 3.33334C9.99967 3.56945 10.0797 3.7675 10.2397 3.9275C10.3997 4.0875 10.5975 4.16723 10.833 4.16667H12.4997Z" fill="#424242"/>
</svg>
