<svg width="120" height="121" viewBox="0 0 120 121" fill="none" xmlns="http://www.w3.org/2000/svg">
<g clip-path="url(#clip0_10072_3735)">
<circle cx="60" cy="60.5" r="60" fill="#292C2A"/>
<path d="M26.145 43.3453C26.145 39.5755 29.201 36.5195 32.9708 36.5195H87.4408C91.2105 36.5195 94.2665 39.5755 94.2665 43.3453V83.8127C93.4538 87.5245 91.2105 90.6384 87.4408 90.6384H32.9708C29.201 90.6384 26.9096 87.6192 26.145 83.8127V43.3453Z" fill="#069550"/>
<path d="M30.8691 30.879C30.8691 29.3135 31.7494 27.8809 33.146 27.1735L39.2315 24.0911L45.4018 28.3268L52.7021 24.0912L59.9345 28.3268L67.2566 24.0911L74.4672 28.3268L81.5014 24.0912L86.889 27.1345C88.1933 27.8712 88.9999 29.2531 88.9999 30.7511V92.7473C88.9999 93.9535 88.0221 94.9313 86.8158 94.9313H33.0532C31.847 94.9313 30.8691 93.9535 30.8691 92.7473V30.879Z" fill="#E9EBF1"/>
<path d="M47.9927 48.9146V43.1659C47.9927 42.6231 48.0291 42.0235 48.1021 41.3672L42.6451 48.9146H47.9927ZM52.8177 48.9146V50.6526C52.8177 50.8146 52.765 50.9564 52.6597 51.078C52.5544 51.1914 52.4045 51.2481 52.21 51.2481H50.6057V55.5383H47.9927V51.2481H40.579C40.3764 51.2481 40.1982 51.1873 40.0442 51.0658C39.8903 50.9362 39.793 50.7782 39.7525 50.5918L39.4365 49.0726L47.7618 37.952H50.6057V48.9146H52.8177Z" fill="#415C84"/>
<path d="M66.93 46.7513C66.93 48.2826 66.7639 49.6155 66.4317 50.7498C66.1076 51.876 65.6538 52.8078 65.0705 53.5451C64.4952 54.2825 63.8105 54.8334 63.0165 55.198C62.2306 55.5545 61.3798 55.7328 60.4642 55.7328C59.5487 55.7328 58.6979 55.5545 57.912 55.198C57.1341 54.8334 56.4576 54.2825 55.8823 53.5451C55.307 52.8078 54.8573 51.876 54.5332 50.7498C54.2092 49.6155 54.0471 48.2826 54.0471 46.7513C54.0471 45.2118 54.2092 43.8789 54.5332 42.7527C54.8573 41.6265 55.307 40.6947 55.8823 39.9574C56.4576 39.22 57.1341 38.6731 57.912 38.3166C58.6979 37.952 59.5487 37.7697 60.4642 37.7697C61.3798 37.7697 62.2306 37.952 63.0165 38.3166C63.8105 38.6731 64.4952 39.22 65.0705 39.9574C65.6538 40.6947 66.1076 41.6265 66.4317 42.7527C66.7639 43.8789 66.93 45.2118 66.93 46.7513ZM63.8308 46.7513C63.8308 45.4792 63.7376 44.4259 63.5512 43.5913C63.3649 42.7568 63.1137 42.0924 62.7977 41.5981C62.4898 41.1039 62.1333 40.7595 61.7282 40.5651C61.3231 40.3625 60.9018 40.2612 60.4642 40.2612C60.0348 40.2612 59.6175 40.3625 59.2124 40.5651C58.8154 40.7595 58.4629 41.1039 58.155 41.5981C57.8471 42.0924 57.6 42.7568 57.4137 43.5913C57.2354 44.4259 57.1463 45.4792 57.1463 46.7513C57.1463 48.0233 57.2354 49.0767 57.4137 49.9112C57.6 50.7458 57.8471 51.4101 58.155 51.9044C58.4629 52.3986 58.8154 52.7471 59.2124 52.9496C59.6175 53.1441 60.0348 53.2413 60.4642 53.2413C60.9018 53.2413 61.3231 53.1441 61.7282 52.9496C62.1333 52.7471 62.4898 52.3986 62.7977 51.9044C63.1137 51.4101 63.3649 50.7458 63.5512 49.9112C63.7376 49.0767 63.8308 48.0233 63.8308 46.7513Z" fill="#415C84"/>
<path d="M76.1929 48.9146V43.1659C76.1929 42.6231 76.2294 42.0235 76.3023 41.3672L70.8453 48.9146H76.1929ZM81.0179 48.9146V50.6526C81.0179 50.8146 80.9653 50.9564 80.8599 51.078C80.7546 51.1914 80.6047 51.2481 80.4103 51.2481H78.806V55.5383H76.1929V51.2481H68.7792C68.5767 51.2481 68.3984 51.1873 68.2445 51.0658C68.0905 50.9362 67.9933 50.7782 67.9528 50.5918L67.6368 49.0726L75.962 37.952H78.806V48.9146H81.0179Z" fill="#415C84"/>
<path d="M26.145 67.0718C26.145 63.302 29.201 60.246 32.9708 60.246H47.3934C48.7159 60.246 50.0099 60.6302 51.1181 61.3518L58.3672 66.0722C59.4755 66.7938 60.7694 67.178 62.0919 67.178H87.4408C91.2105 67.178 94.2665 70.234 94.2665 74.0037V92.9812C94.2665 93.4268 94.2287 93.873 94.1189 94.3049C93.2504 97.7208 90.9869 100.477 87.4408 100.477H32.9708C29.4232 100.477 27.1702 97.7582 26.2936 94.3078C26.1833 93.874 26.145 93.4258 26.145 92.9781V67.0718Z" fill="#314E48" fill-opacity="0.2"/>
<path d="M19.8219 73.1072C19.2136 67.4581 26.2997 65.5382 30.4197 65.5382H46.1826C47.628 65.5382 49.0422 65.9581 50.2534 66.7467L58.1762 71.9058C59.3874 72.6945 60.8016 73.1143 62.2469 73.1143H89.9513C94.0714 73.1143 101.116 74.8429 100.119 80.5614C99.1327 86.2211 97.4465 94.884 97.4119 95.0614C97.4108 95.067 97.4108 95.067 97.4097 95.0726C96.6247 99.0407 94.0685 102.524 89.9514 102.524H30.4197C26.3547 102.524 23.8626 99.2934 22.9941 95.2299C22.9706 95.1198 22.9518 95.0135 22.9346 94.9023C22.6704 93.1932 20.3947 78.4258 19.8219 73.1072Z" fill="#1FB767"/>
</g>
<defs>
<clipPath id="clip0_10072_3735">
<rect width="120" height="120" fill="white" transform="translate(0 0.5)"/>
</clipPath>
</defs>
</svg>
