<svg width="82" height="81" viewBox="0 0 82 81" fill="none" xmlns="http://www.w3.org/2000/svg">
<path d="M7.14502 20.3453C7.14502 16.5755 10.201 13.5195 13.9708 13.5195H68.4408C72.2105 13.5195 75.2665 16.5755 75.2665 20.3453V60.8127C74.4538 64.5245 72.2105 67.6384 68.4408 67.6384H13.9708C10.201 67.6384 7.90965 64.6192 7.14502 60.8127V20.3453Z" fill="#069550"/>
<path d="M11.8691 7.87908C11.8691 6.31354 12.7494 4.88099 14.146 4.17359L20.2315 1.09119L26.4018 5.32684L33.7021 1.0913L40.9345 5.32684L48.2566 1.09119L55.4672 5.32684L62.5014 1.09125L67.889 4.13452C69.1933 4.87125 69.9999 6.25318 69.9999 7.75115V69.7473C69.9999 70.9535 69.0221 71.9314 67.8158 71.9314H14.0532C12.847 71.9314 11.8691 70.9535 11.8691 69.7473V7.87908Z" fill="#E9EBF1"/>
<path d="M28.9927 25.9147V20.166C28.9927 19.6231 29.0291 19.0235 29.1021 18.3673L23.6451 25.9147H28.9927ZM33.8177 25.9147V27.6526C33.8177 27.8147 33.765 27.9565 33.6597 28.078C33.5544 28.1914 33.4045 28.2482 33.21 28.2482H31.6057V32.5384H28.9927V28.2482H21.579C21.3764 28.2482 21.1982 28.1874 21.0442 28.0659C20.8903 27.9362 20.793 27.7782 20.7525 27.5919L20.4365 26.0727L28.7618 14.9521H31.6057V25.9147H33.8177Z" fill="#415C84"/>
<path d="M47.93 23.7513C47.93 25.2827 47.7639 26.6155 47.4317 27.7499C47.1076 28.8761 46.6538 29.8079 46.0705 30.5452C45.4952 31.2825 44.8105 31.8335 44.0165 32.1981C43.2306 32.5546 42.3798 32.7329 41.4642 32.7329C40.5487 32.7329 39.6979 32.5546 38.912 32.1981C38.1341 31.8335 37.4576 31.2825 36.8823 30.5452C36.307 29.8079 35.8573 28.8761 35.5332 27.7499C35.2092 26.6155 35.0471 25.2827 35.0471 23.7513C35.0471 22.2119 35.2092 20.879 35.5332 19.7528C35.8573 18.6265 36.307 17.6948 36.8823 16.9574C37.4576 16.2201 38.1341 15.6732 38.912 15.3167C39.6979 14.9521 40.5487 14.7698 41.4642 14.7698C42.3798 14.7698 43.2306 14.9521 44.0165 15.3167C44.8105 15.6732 45.4952 16.2201 46.0705 16.9574C46.6538 17.6948 47.1076 18.6265 47.4317 19.7528C47.7639 20.879 47.93 22.2119 47.93 23.7513ZM44.8308 23.7513C44.8308 22.4792 44.7376 21.4259 44.5512 20.5914C44.3649 19.7568 44.1137 19.0924 43.7977 18.5982C43.4898 18.1039 43.1333 17.7596 42.7282 17.5651C42.3231 17.3626 41.9018 17.2613 41.4642 17.2613C41.0348 17.2613 40.6175 17.3626 40.2124 17.5651C39.8154 17.7596 39.4629 18.1039 39.155 18.5982C38.8471 19.0924 38.6 19.7568 38.4137 20.5914C38.2354 21.4259 38.1463 22.4792 38.1463 23.7513C38.1463 25.0234 38.2354 26.0767 38.4137 26.9113C38.6 27.7458 38.8471 28.4102 39.155 28.9045C39.4629 29.3987 39.8154 29.7471 40.2124 29.9497C40.6175 30.1441 41.0348 30.2414 41.4642 30.2414C41.9018 30.2414 42.3231 30.1441 42.7282 29.9497C43.1333 29.7471 43.4898 29.3987 43.7977 28.9045C44.1137 28.4102 44.3649 27.7458 44.5512 26.9113C44.7376 26.0767 44.8308 25.0234 44.8308 23.7513Z" fill="#415C84"/>
<path d="M57.1929 25.9147V20.166C57.1929 19.6231 57.2294 19.0235 57.3023 18.3673L51.8453 25.9147H57.1929ZM62.0179 25.9147V27.6526C62.0179 27.8147 61.9653 27.9565 61.8599 28.078C61.7546 28.1914 61.6047 28.2482 61.4103 28.2482H59.806V32.5384H57.1929V28.2482H49.7792C49.5767 28.2482 49.3984 28.1874 49.2445 28.0659C49.0905 27.9362 48.9933 27.7782 48.9528 27.5919L48.6368 26.0727L56.962 14.9521H59.806V25.9147H62.0179Z" fill="#415C84"/>
<path d="M7.14502 44.0717C7.14502 40.302 10.201 37.246 13.9708 37.246H28.3934C29.7159 37.246 31.0099 37.6301 32.1181 38.3518L39.3672 43.0721C40.4755 43.7938 41.7694 44.1779 43.0919 44.1779H68.4408C72.2105 44.1779 75.2665 47.2339 75.2665 51.0037V69.9811C75.2665 70.4268 75.2287 70.8729 75.1189 71.3048C74.2504 74.7207 71.9869 77.4769 68.4408 77.4769H13.9708C10.4232 77.4769 8.17021 74.7582 7.29355 71.3078C7.18332 70.8739 7.14502 70.4257 7.14502 69.9781V44.0717Z" fill="#314E48" fill-opacity="0.2"/>
<path d="M0.821917 50.107C0.213565 44.458 7.29966 42.5381 11.4197 42.5381H27.1826C28.628 42.5381 30.0422 42.9579 31.2534 43.7466L39.1762 48.9057C40.3874 49.6943 41.8016 50.1142 43.2469 50.1142H70.9513C75.0714 50.1142 82.1156 51.8428 81.119 57.5613C80.1327 63.221 78.4465 71.8838 78.4119 72.0613C78.4108 72.0669 78.4108 72.0669 78.4097 72.0724C77.6247 76.0406 75.0685 79.5241 70.9514 79.5241H11.4197C7.35475 79.5241 4.86264 76.2933 3.99411 72.2297C3.97059 72.1197 3.95183 72.0134 3.93464 71.9022C3.67042 70.1931 1.39469 55.4257 0.821917 50.107Z" fill="#1FB767"/>
</svg>
