<svg width="24" height="28" viewBox="0 0 24 28" fill="none" xmlns="http://www.w3.org/2000/svg">
<path d="M20.4854 4.18137C22.6885 6.38421 23.9485 9.35752 23.999 12.4726C24.0496 15.5877 22.8866 18.6003 20.7561 20.8734L20.4854 21.1534L14.8281 26.8094C14.1102 27.5267 13.1466 27.9444 12.1323 27.9779C11.118 28.0113 10.1289 27.6579 9.36541 26.9894L9.17341 26.8094L3.51474 21.152C1.26429 18.9016 0 15.8493 0 12.6667C0 9.48408 1.26429 6.43182 3.51474 4.18137C5.76519 1.93092 8.81746 0.666626 12.0001 0.666626C15.1827 0.666626 18.235 1.93092 20.4854 4.18137ZM12.0001 8.6667C11.4748 8.6667 10.9546 8.77016 10.4693 8.97118C9.98404 9.1722 9.54308 9.46684 9.17165 9.83827C8.80021 10.2097 8.50557 10.6507 8.30456 11.136C8.10354 11.6213 8.00007 12.1414 8.00007 12.6667C8.00007 13.192 8.10354 13.7121 8.30456 14.1974C8.50557 14.6827 8.80021 15.1237 9.17165 15.4951C9.54308 15.8666 9.98404 16.1612 10.4693 16.3622C10.9546 16.5632 11.4748 16.6667 12.0001 16.6667C13.0609 16.6667 14.0784 16.2453 14.8285 15.4951C15.5786 14.745 16.0001 13.7276 16.0001 12.6667C16.0001 11.6058 15.5786 10.5884 14.8285 9.83827C14.0784 9.08813 13.0609 8.6667 12.0001 8.6667Z" fill="#057A55"/>
</svg>
