<svg width="11" height="16" viewBox="0 0 11 16" fill="none" xmlns="http://www.w3.org/2000/svg">
<path d="M5.29995 15.2C3.87995 15.2 2.67495 14.705 1.68495 13.715C0.694951 12.725 0.199951 11.52 0.199951 10.1V5.00005C0.199951 4.58005 0.344951 4.22505 0.634951 3.93505C0.924951 3.64505 1.27995 3.50005 1.69995 3.50005C1.74995 3.50005 1.79995 3.50245 1.84995 3.50725C1.89995 3.51245 1.94995 3.52005 1.99995 3.53005V3.20005C1.99995 2.78005 2.14495 2.42505 2.43495 2.13505C2.72495 1.84505 3.07995 1.70005 3.49995 1.70005C3.56995 1.70005 3.63755 1.70505 3.70275 1.71505C3.76755 1.72505 3.83495 1.74005 3.90495 1.76005C4.01495 1.47005 4.19495 1.23765 4.44495 1.06285C4.69495 0.887649 4.97995 0.800049 5.29995 0.800049C5.66995 0.800049 5.99255 0.917449 6.26775 1.15225C6.54255 1.38745 6.70995 1.68005 6.76995 2.03005C6.81995 2.02005 6.87255 2.01245 6.92775 2.00725C6.98255 2.00245 7.03995 2.00005 7.09995 2.00005C7.51995 2.00005 7.87495 2.14505 8.16495 2.43505C8.45495 2.72505 8.59995 3.08005 8.59995 3.50005V5.63005C8.64995 5.62005 8.69995 5.61245 8.74995 5.60725C8.79995 5.60245 8.84995 5.60005 8.89995 5.60005C9.31995 5.60005 9.67495 5.74505 9.96495 6.03505C10.255 6.32505 10.4 6.68005 10.4 7.10005V10.1C10.4 11.52 9.90495 12.725 8.91495 13.715C7.92495 14.705 6.71995 15.2 5.29995 15.2ZM5.29995 14C5.83995 14 6.34755 13.8976 6.82275 13.6928C7.29755 13.4876 7.70995 13.21 8.05995 12.86C8.40995 12.51 8.68755 12.0976 8.89275 11.6228C9.09755 11.1476 9.19995 10.64 9.19995 10.1V7.10005C9.19995 7.02005 9.16995 6.95005 9.10995 6.89005C9.04995 6.83005 8.97995 6.80005 8.89995 6.80005C8.81995 6.80005 8.74995 6.83005 8.68995 6.89005C8.62995 6.95005 8.59995 7.02005 8.59995 7.10005V8.85505C8.59995 9.10505 8.53995 9.32245 8.41995 9.50725C8.29995 9.69245 8.10495 9.85005 7.83495 9.98005C7.60495 10.09 7.40755 10.24 7.24275 10.43C7.07755 10.62 6.95495 10.835 6.87495 11.075C6.82495 11.235 6.74255 11.3624 6.62775 11.4572C6.51255 11.5524 6.38495 11.6 6.24495 11.6C6.05495 11.6 5.90235 11.535 5.78715 11.405C5.67235 11.275 5.63495 11.125 5.67495 10.955C5.78495 10.475 5.98995 10.0524 6.28995 9.68725C6.58995 9.32245 6.95995 9.04505 7.39995 8.85505V3.50005C7.39995 3.42005 7.36995 3.35005 7.30995 3.29005C7.24995 3.23005 7.17995 3.20005 7.09995 3.20005C7.01995 3.20005 6.94995 3.23005 6.88995 3.29005C6.82995 3.35005 6.79995 3.42005 6.79995 3.50005V6.80005C6.79995 6.97005 6.74255 7.11245 6.62775 7.22725C6.51255 7.34245 6.36995 7.40005 6.19995 7.40005C6.02995 7.40005 5.88755 7.34245 5.77275 7.22725C5.65755 7.11245 5.59995 6.97005 5.59995 6.80005V2.30005C5.59995 2.22005 5.56995 2.15005 5.50995 2.09005C5.44995 2.03005 5.37995 2.00005 5.29995 2.00005C5.21995 2.00005 5.14995 2.03005 5.08995 2.09005C5.02995 2.15005 4.99995 2.22005 4.99995 2.30005V6.80005C4.99995 6.97005 4.94255 7.11245 4.82775 7.22725C4.71255 7.34245 4.56995 7.40005 4.39995 7.40005C4.22995 7.40005 4.08755 7.34245 3.97275 7.22725C3.85755 7.11245 3.79995 6.97005 3.79995 6.80005V3.20005C3.79995 3.12005 3.76995 3.05005 3.70995 2.99005C3.64995 2.93005 3.57995 2.90005 3.49995 2.90005C3.41995 2.90005 3.34995 2.93005 3.28995 2.99005C3.22995 3.05005 3.19995 3.12005 3.19995 3.20005V7.40005C3.19995 7.57005 3.14255 7.71245 3.02775 7.82725C2.91255 7.94245 2.76995 8.00005 2.59995 8.00005C2.42995 8.00005 2.28735 7.94245 2.17215 7.82725C2.05735 7.71245 1.99995 7.57005 1.99995 7.40005V5.00005C1.99995 4.92005 1.96995 4.85005 1.90995 4.79005C1.84995 4.73005 1.77995 4.70005 1.69995 4.70005C1.61995 4.70005 1.54995 4.73005 1.48995 4.79005C1.42995 4.85005 1.39995 4.92005 1.39995 5.00005V10.1C1.39995 10.64 1.50255 11.1476 1.70775 11.6228C1.91255 12.0976 2.18995 12.51 2.53995 12.86C2.88995 13.21 3.30255 13.4876 3.77775 13.6928C4.25255 13.8976 4.75995 14 5.29995 14Z" fill="#F44336"/>
</svg>
