<svg width="18" height="19" viewBox="0 0 18 19" fill="none" xmlns="http://www.w3.org/2000/svg">
<path fill-rule="evenodd" clip-rule="evenodd" d="M8.4054 2.52536C9.6136 2.42225 10.8279 2.63474 11.9292 3.14202C13.0306 3.6493 13.9813 4.43397 14.6883 5.41916V4.03132C14.6883 3.85726 14.7574 3.69033 14.8805 3.56726C15.0036 3.44418 15.1705 3.37503 15.3446 3.37503C15.5186 3.37503 15.6856 3.44418 15.8086 3.56726C15.9317 3.69033 16.0009 3.85726 16.0009 4.03132V7.7503H12.2819C12.1078 7.7503 11.9409 7.68116 11.8178 7.55808C11.6947 7.435 11.6256 7.26807 11.6256 7.09401C11.6256 6.91995 11.6947 6.75302 11.8178 6.62995C11.9409 6.50687 12.1078 6.43772 12.2819 6.43772H13.7931C13.1947 5.50133 12.335 4.76076 11.3204 4.30748C10.3058 3.85421 9.18056 3.70808 8.0838 3.88717C6.98704 4.06626 5.96677 4.5627 5.14901 5.31518C4.33125 6.06766 3.75184 7.04322 3.48234 8.12133C3.46246 8.20602 3.42595 8.28591 3.37491 8.35636C3.32388 8.42681 3.25935 8.48641 3.18508 8.5317C3.11081 8.57699 3.02827 8.60706 2.94227 8.62016C2.85628 8.63326 2.76853 8.62914 2.68414 8.60803C2.59975 8.58691 2.5204 8.54924 2.4507 8.49718C2.381 8.44513 2.32235 8.37974 2.27815 8.30481C2.23395 8.22988 2.20509 8.14692 2.19324 8.06074C2.18139 7.97456 2.1868 7.88688 2.20914 7.80281C2.56314 6.38734 3.35056 5.11786 4.46135 4.17181C5.57213 3.22576 6.95076 2.65043 8.40452 2.52623L8.4054 2.52536ZM5.43021 15.5217C6.36826 16.0777 7.42322 16.4068 8.511 16.4829C9.59878 16.559 10.6893 16.38 11.6956 15.96C12.702 15.5401 13.5963 14.8908 14.3073 14.0641C15.0183 13.2373 15.5263 12.2559 15.7909 11.198C15.8303 11.0302 15.802 10.8536 15.7123 10.7064C15.6225 10.5592 15.4785 10.4532 15.3112 10.4114C15.144 10.3695 14.967 10.3952 14.8185 10.4828C14.67 10.5704 14.5619 10.7129 14.5177 10.8795C14.248 11.9574 13.6686 12.9327 12.8509 13.685C12.0332 14.4373 11.0131 14.9336 9.91652 15.1127C8.81994 15.2917 7.69493 15.1457 6.68041 14.6926C5.66589 14.2395 4.80629 13.4992 4.20776 12.5631H5.71898C5.89304 12.5631 6.05997 12.494 6.18305 12.3709C6.30613 12.2478 6.37527 12.0809 6.37527 11.9068C6.37527 11.7328 6.30613 11.5658 6.18305 11.4427C6.05997 11.3197 5.89304 11.2505 5.71898 11.2505H2V14.9695C2 15.1436 2.06914 15.3105 2.19222 15.4336C2.3153 15.5566 2.48223 15.6258 2.65629 15.6258C2.83035 15.6258 2.99728 15.5566 3.12036 15.4336C3.24344 15.3105 3.31258 15.1436 3.31258 14.9695V13.5817C3.8768 14.3677 4.59785 15.0283 5.43021 15.5217Z" fill="#133C6B"/>
</svg>
