<svg width="11" height="14" viewBox="0 0 11 14" fill="none" xmlns="http://www.w3.org/2000/svg">
<path d="M0.333496 13.6667V0.983374C0.333496 0.794485 0.397496 0.63893 0.525496 0.516707C0.653496 0.394485 0.811718 0.333374 1.00016 0.333374C1.18905 0.333374 1.3475 0.397374 1.4755 0.525374C1.6035 0.653374 1.66727 0.811596 1.66683 1.00004V1.66671H10.0168C10.2502 1.66671 10.4335 1.76404 10.5668 1.95871C10.7002 2.15337 10.7224 2.3616 10.6335 2.58337L9.66683 5.00004L10.6335 7.41671C10.7224 7.63893 10.7002 7.84737 10.5668 8.04204C10.4335 8.23671 10.2502 8.33382 10.0168 8.33337H1.66683V13.6667H0.333496ZM5.3335 6.33337C5.70016 6.33337 6.01416 6.20271 6.2755 5.94137C6.53683 5.68004 6.66727 5.36626 6.66683 5.00004C6.66683 4.63337 6.53616 4.31937 6.27483 4.05804C6.0135 3.79671 5.69972 3.66626 5.3335 3.66671C4.96683 3.66671 4.65283 3.79737 4.3915 4.05871C4.13016 4.32004 3.99972 4.63382 4.00016 5.00004C4.00016 5.36671 4.13083 5.68071 4.39216 5.94204C4.6535 6.20337 4.96727 6.33382 5.3335 6.33337ZM1.66683 7.00004H9.03349L8.2335 5.00004L9.03349 3.00004H1.66683V7.00004Z" fill="#FF7500"/>
</svg>
