<svg width="49" height="48" viewBox="0 0 49 48" fill="none" xmlns="http://www.w3.org/2000/svg">
<circle cx="24.5" cy="24" r="24" fill="#F3FAF7"/>
<path d="M33.2823 15.2174C33.181 15.1167 33.0532 15.047 32.9137 15.0164C32.7742 14.9858 32.6288 14.9957 32.4948 15.0449L15.9948 21.0449C15.8525 21.0989 15.7299 21.1949 15.6435 21.3202C15.557 21.4454 15.5107 21.594 15.5107 21.7462C15.5107 21.8984 15.557 22.047 15.6435 22.1722C15.7299 22.2975 15.8525 22.3935 15.9948 22.4474L22.4373 25.0199L27.1923 20.2499L28.2498 21.3074L23.4723 26.0849L26.0523 32.5274C26.1078 32.667 26.204 32.7866 26.3284 32.8709C26.4528 32.9551 26.5995 33.0001 26.7498 32.9999C26.9013 32.9968 27.0484 32.9479 27.1716 32.8595C27.2947 32.7711 27.3882 32.6475 27.4398 32.5049L33.4398 16.0049C33.4909 15.8723 33.5032 15.7278 33.4753 15.5883C33.4474 15.4489 33.3805 15.3203 33.2823 15.2174Z" fill="#057A55"/>
</svg>
