<svg width="51" height="51" viewBox="0 0 51 51" fill="none" xmlns="http://www.w3.org/2000/svg">
<g clip-path="url(#clip0_939_28432)">
<rect width="51" height="51" rx="25.5" fill="#F3F4F6"/>
<g clip-path="url(#clip1_939_28432)">
<path d="M8.42773 17.006C8.42773 14.7936 10.2213 13 12.4338 13H35.276C36.4128 13 37.496 13.4829 38.2558 14.3285L44.3173 21.0741C44.978 21.8094 45.3436 22.7631 45.3436 23.7517V57.2639C45.3436 59.4764 43.55 61.2699 41.3375 61.2699H12.4338C10.2213 61.2699 8.42773 59.4764 8.42773 57.2639L8.42773 17.006Z" fill="#D1D5DB"/>
<rect x="14.9082" y="26.7344" width="20.7943" height="2.39934" rx="1.19967" fill="#F3F4F6"/>
<rect x="14.9082" y="32.333" width="16.7954" height="2.39934" rx="1.19967" fill="#F3F4F6"/>
<rect x="14.9082" y="44.3291" width="12.7965" height="2.39934" rx="1.19967" fill="#F3F4F6"/>
<path d="M44.6993 21.8233L37.8192 14.0423C37.5138 13.6969 36.9434 13.913 36.9434 14.374L36.9434 21.6543C36.9434 22.2074 37.3917 22.6558 37.9449 22.6558H44.3241C44.7556 22.6558 44.9851 22.1466 44.6993 21.8233Z" fill="#F3F4F6"/>
<rect x="31.2227" y="36.4111" width="2.49949" height="2.85144" transform="rotate(-40 31.2227 36.4111)" fill="#4F517B"/>
<path d="M33.2454 37.3804C32.879 36.9438 32.936 36.2928 33.3726 35.9264L33.7872 35.5786L34.9708 36.9892L33.7657 38.0005L33.2454 37.3804Z" fill="#7274A4"/>
<path d="M32.6468 39.5735C32.4137 39.2956 32.4499 38.8813 32.7278 38.6481L35.0778 36.6762C35.3557 36.443 35.7701 36.4792 36.0033 36.7572L43.0399 45.1431C43.8176 46.0699 43.6967 47.4517 42.7698 48.2295C41.843 49.0072 40.4612 48.8863 39.6835 47.9594L32.6468 39.5735Z" fill="#FF7500"/>
<path d="M32.7291 38.648C32.4512 38.8812 32.415 39.2955 32.6482 39.5734L39.6848 47.9593C39.7678 48.0583 39.8577 48.148 39.9532 48.2285C40.9671 49.0827 41.5579 47.5323 40.6948 46.5259L35.9388 40.981C35.4756 40.4411 35.5379 39.6279 36.0779 39.1648L37.2101 38.1937L36.0046 36.7571C35.7714 36.4792 35.357 36.4429 35.0791 36.6761L32.7291 38.648Z" fill="#FFA600"/>
<path fill-rule="evenodd" clip-rule="evenodd" d="M32.608 35.9657C37.27 32.0538 37.8782 25.1031 33.9662 20.441C30.0542 15.7789 23.1036 15.1708 18.4415 19.0828C13.7794 22.9947 13.1713 29.9454 17.0832 34.6075C20.9952 39.2696 27.9459 39.8777 32.608 35.9657ZM31.3462 34.462C35.1778 31.2469 35.6776 25.5344 32.4625 21.7028C29.2474 17.8712 23.5349 17.3714 19.7032 20.5865C15.8716 23.8016 15.3718 29.5141 18.587 33.3457C21.8021 37.1773 27.5146 37.6771 31.3462 34.462Z" fill="#383858"/>
<path fill-rule="evenodd" clip-rule="evenodd" d="M31.4137 34.5421C35.2898 31.2897 35.7954 25.5108 32.5429 21.6347C29.2905 17.7586 23.5116 17.253 19.6355 20.5055C15.7594 23.7579 15.2538 29.5367 18.5063 33.4129C21.7587 37.289 27.5376 37.7946 31.4137 34.5421ZM30.9887 34.0356C34.5851 31.0179 35.0542 25.656 32.0364 22.0596C29.0187 18.4632 23.6569 17.9941 20.0605 21.0119C16.464 24.0296 15.9949 29.3914 19.0127 32.9878C22.0304 36.5843 27.3923 37.0534 30.9887 34.0356Z" fill="#5F618F"/>
<circle opacity="0.4" cx="25.5248" cy="27.5233" r="8.50065" transform="rotate(-40 25.5248 27.5233)" fill="#D2DEDF"/>
<path opacity="0.8" fill-rule="evenodd" clip-rule="evenodd" d="M26.1312 21.0465C26.1738 20.7357 26.4604 20.5183 26.7713 20.5609C27.6586 20.6827 28.483 20.9723 29.2161 21.3935C29.4881 21.5499 29.5819 21.8972 29.4256 22.1692C29.2692 22.4413 28.9219 22.5351 28.6499 22.3787C28.0415 22.0291 27.3566 21.7883 26.6168 21.6867C26.3059 21.644 26.0885 21.3574 26.1312 21.0465ZM30.4958 23.1266C30.7485 22.9405 31.1041 22.9945 31.2902 23.2472C32.2949 24.6119 32.7905 26.3558 32.5417 28.1679C32.499 28.4788 32.2124 28.6962 31.9015 28.6535C31.5906 28.6108 31.3732 28.3242 31.4159 28.0134C31.6229 26.5058 31.2116 25.0571 30.3751 23.9209C30.1891 23.6682 30.2431 23.3126 30.4958 23.1266Z" fill="white"/>
</g>
</g>
<defs>
<clipPath id="clip0_939_28432">
<rect width="51" height="51" rx="25.5" fill="white"/>
</clipPath>
<clipPath id="clip1_939_28432">
<rect width="51" height="51" rx="25.5" fill="white"/>
</clipPath>
</defs>
</svg>
