<svg width="13" height="14" viewBox="0 0 13 14" fill="none" xmlns="http://www.w3.org/2000/svg">
<path d="M5.33333 14.0001H1.33333C0.966667 14.0001 0.652667 13.8696 0.391333 13.6087C0.130444 13.3474 0 13.0334 0 12.6667V3.33341C0 2.96675 0.130444 2.65275 0.391333 2.39141C0.652667 2.13053 0.966667 2.00008 1.33333 2.00008H4.11667C4.23889 1.61119 4.47778 1.29164 4.83333 1.04141C5.18889 0.791637 5.57778 0.666748 6 0.666748C6.44444 0.666748 6.84178 0.791637 7.192 1.04141C7.54178 1.29164 7.77778 1.61119 7.9 2.00008H10.6667C11.0333 2.00008 11.3473 2.13053 11.6087 2.39141C11.8696 2.65275 12 2.96675 12 3.33341V6.66675H10.6667V3.33341H9.33333V4.00008C9.33333 4.36675 9.20289 4.68053 8.942 4.94141C8.68067 5.20275 8.36667 5.33341 8 5.33341H4C3.63333 5.33341 3.31956 5.20275 3.05867 4.94141C2.79733 4.68053 2.66667 4.36675 2.66667 4.00008V3.33341H1.33333V12.6667H5.33333V14.0001ZM8.33333 11.4167L11.6333 8.11675C11.7556 7.99453 11.9111 7.93341 12.1 7.93341C12.2889 7.93341 12.4444 7.99453 12.5667 8.11675C12.6889 8.23897 12.75 8.39453 12.75 8.58341C12.75 8.7723 12.6889 8.92786 12.5667 9.05008L8.8 12.8167C8.66667 12.9501 8.51111 13.0167 8.33333 13.0167C8.15556 13.0167 8 12.9501 7.86667 12.8167L5.96667 10.9167C5.84444 10.7945 5.78333 10.639 5.78333 10.4501C5.78333 10.2612 5.84444 10.1056 5.96667 9.98341C6.08889 9.86119 6.24444 9.80008 6.43333 9.80008C6.62222 9.80008 6.77778 9.86119 6.9 9.98341L8.33333 11.4167ZM6 3.33341C6.18889 3.33341 6.34733 3.26941 6.47533 3.14141C6.60289 3.01386 6.66667 2.85564 6.66667 2.66675C6.66667 2.47786 6.60289 2.31941 6.47533 2.19141C6.34733 2.06386 6.18889 2.00008 6 2.00008C5.81111 2.00008 5.65289 2.06386 5.52533 2.19141C5.39733 2.31941 5.33333 2.47786 5.33333 2.66675C5.33333 2.85564 5.39733 3.01386 5.52533 3.14141C5.65289 3.26941 5.81111 3.33341 6 3.33341Z" fill="#FF7500"/>
</svg>
