<svg width="13" height="15" viewBox="0 0 13 15" fill="none" xmlns="http://www.w3.org/2000/svg">
<path d="M9.33333 14.6667C8.41111 14.6667 7.62511 14.3419 6.97533 13.6921C6.32511 13.0419 6 12.2556 6 11.3334C6 10.4112 6.32511 9.62497 6.97533 8.97475C7.62511 8.32497 8.41111 8.00008 9.33333 8.00008C10.2556 8.00008 11.0418 8.32497 11.692 8.97475C12.3418 9.62497 12.6667 10.4112 12.6667 11.3334C12.6667 12.2556 12.3418 13.0419 11.692 13.6921C11.0418 14.3419 10.2556 14.6667 9.33333 14.6667ZM10.2167 12.6834C10.2833 12.7501 10.3611 12.7834 10.45 12.7834C10.5389 12.7834 10.6167 12.7501 10.6833 12.6834C10.75 12.6167 10.7833 12.539 10.7833 12.4501C10.7833 12.3612 10.75 12.2834 10.6833 12.2167L9.66667 11.2001V9.66675C9.66667 9.57786 9.63333 9.50008 9.56667 9.43341C9.5 9.36675 9.42222 9.33342 9.33333 9.33342C9.24444 9.33342 9.16667 9.36675 9.1 9.43341C9.03333 9.50008 9 9.57786 9 9.66675V11.1834C9 11.2723 9.01667 11.3585 9.05 11.4421C9.08333 11.5252 9.13333 11.6001 9.2 11.6667L10.2167 12.6834ZM1.33333 14.0001C0.966667 14.0001 0.652667 13.8696 0.391333 13.6087C0.130444 13.3474 0 13.0334 0 12.6667V3.33341C0 2.96675 0.130444 2.65275 0.391333 2.39141C0.652667 2.13053 0.966667 2.00008 1.33333 2.00008H4.11667C4.23889 1.61119 4.47778 1.29164 4.83333 1.04141C5.18889 0.791637 5.57778 0.666748 6 0.666748C6.44444 0.666748 6.84178 0.791637 7.192 1.04141C7.54178 1.29164 7.77778 1.61119 7.9 2.00008H10.6667C11.0333 2.00008 11.3473 2.13053 11.6087 2.39141C11.8696 2.65275 12 2.96675 12 3.33341V7.50008C11.8 7.35564 11.5889 7.23341 11.3667 7.13341C11.1444 7.03341 10.9111 6.94453 10.6667 6.86675V3.33341H9.33333V4.00008C9.33333 4.36675 9.20289 4.68053 8.942 4.94141C8.68067 5.20275 8.36667 5.33342 8 5.33342H4C3.63333 5.33342 3.31956 5.20275 3.05867 4.94141C2.79733 4.68053 2.66667 4.36675 2.66667 4.00008V3.33341H1.33333V12.6667H4.86667C4.94444 12.9112 5.03333 13.1445 5.13333 13.3667C5.23333 13.589 5.35556 13.8001 5.5 14.0001H1.33333ZM6 3.33341C6.18889 3.33341 6.34733 3.26941 6.47533 3.14141C6.60289 3.01386 6.66667 2.85564 6.66667 2.66675C6.66667 2.47786 6.60289 2.31941 6.47533 2.19141C6.34733 2.06386 6.18889 2.00008 6 2.00008C5.81111 2.00008 5.65289 2.06386 5.52533 2.19141C5.39733 2.31941 5.33333 2.47786 5.33333 2.66675C5.33333 2.85564 5.39733 3.01386 5.52533 3.14141C5.65289 3.26941 5.81111 3.33341 6 3.33341Z" fill="#FF7500"/>
</svg>
