<svg width="46" height="46" viewBox="0 0 46 46" fill="none" xmlns="http://www.w3.org/2000/svg">
<rect width="46" height="46" rx="23" fill="#292C2A"/>
<path d="M23 8C23.271 8 23.542 8.05892 23.7895 8.17086L34.8833 12.8782C36.1795 13.4262 37.1457 14.7046 37.1398 16.2482C37.1104 22.0927 34.7066 32.7859 24.5495 37.6465C23.5656 38.1178 22.4226 38.1178 21.4387 37.6465C11.2934 32.7859 8.88963 22.0927 8.86017 16.2482C8.85428 14.7046 9.8205 13.4262 11.1167 12.8782L22.2164 8.17086C22.458 8.05892 22.729 8 23 8Z" fill="#16A75C"/>
<path fill-rule="evenodd" clip-rule="evenodd" d="M23 38C23.5298 37.9991 24.0594 37.8813 24.5495 37.6465C34.7066 32.7859 37.1104 22.0927 37.1398 16.2482C37.1457 14.7046 36.1795 13.4262 34.8833 12.8782L23.7895 8.17086C23.542 8.05892 23.271 8 23 8V38Z" fill="#069550"/>
<path d="M23 16.5C26.588 16.5 29.5 19.412 29.5 23C29.5 26.588 26.588 29.5 23 29.5C19.412 29.5 16.5 26.588 16.5 23C16.5 19.412 19.412 16.5 23 16.5ZM19.1149 25.2204C20.0691 26.6439 21.5017 27.55 23.104 27.55C24.7056 27.55 26.1388 26.6446 27.0924 25.2204C26.0106 24.2094 24.5847 23.6479 23.104 23.65C21.6231 23.6478 20.1969 24.2092 19.1149 25.2204ZM23 22.35C23.5172 22.35 24.0132 22.1446 24.3789 21.7789C24.7446 21.4132 24.95 20.9172 24.95 20.4C24.95 19.8828 24.7446 19.3868 24.3789 19.0211C24.0132 18.6554 23.5172 18.45 23 18.45C22.4828 18.45 21.9868 18.6554 21.6211 19.0211C21.2554 19.3868 21.05 19.8828 21.05 20.4C21.05 20.9172 21.2554 21.4132 21.6211 21.7789C21.9868 22.1446 22.4828 22.35 23 22.35Z" fill="white"/>
</svg>
