<svg width="46" height="47" viewBox="0 0 46 47" fill="none" xmlns="http://www.w3.org/2000/svg">
<g clip-path="url(#clip0_4293_17682)">
<rect y="0.456963" width="46" height="46" rx="23" fill="#292C2A"/>
<path d="M32.2358 10.6653H34.143C36.2731 10.6653 37.9999 12.3921 37.9999 14.5223V19.9378C37.9999 20.5525 37.5017 21.0507 36.8871 21.0507H32.2358V10.6653Z" fill="#069550"/>
<path d="M8 15.1168C8 12.6583 9.99301 10.6653 12.4515 10.6653H32.2359V46.457H8V15.1168Z" fill="#1FB767"/>
<rect x="32.2358" y="10.6653" width="2.56264" height="10.3854" fill="#1FB767"/>
<path d="M32.2358 13.228C32.2358 11.8127 33.3832 10.6653 34.7985 10.6653V10.6653V21.0507H32.2358V13.228Z" fill="#069550"/>
<path d="M12.9465 32.9435H17.8336V38.8759C17.8336 39.225 17.4199 39.409 17.1605 39.1753L15.66 37.8226C15.5066 37.6843 15.2735 37.6843 15.1201 37.8226L13.6196 39.1753C13.3602 39.409 12.9465 39.225 12.9465 38.8759V32.9435Z" fill="#EA415D"/>
<path fill-rule="evenodd" clip-rule="evenodd" d="M17.8336 35.4994C17.7217 35.8236 17.4085 36.0544 17.0439 36.0421L16.7774 36.0331C16.5448 36.0252 16.3201 36.1183 16.1612 36.2884L15.9791 36.4832C15.6604 36.8242 15.1197 36.8242 14.801 36.4832L14.6189 36.2884C14.46 36.1183 14.2353 36.0252 14.0027 36.0331L13.7362 36.0421C13.3716 36.0544 13.0584 35.8236 12.9465 35.4994V32.9435H17.8336V35.4994Z" fill="black" fill-opacity="0.2"/>
<path d="M14.801 27.2754C15.1197 26.9345 15.6604 26.9345 15.9791 27.2754L16.478 27.8093C16.637 27.9794 16.8617 28.0724 17.0943 28.0646L17.8246 28.0399C18.2911 28.0241 18.6734 28.4065 18.6576 28.8729L18.633 29.6032C18.6251 29.8359 18.7182 30.0605 18.8882 30.2195L19.4221 30.7184C19.763 31.0371 19.763 31.5778 19.4221 31.8965L18.8882 32.3955C18.7182 32.5544 18.6251 32.7791 18.633 33.0117L18.6576 33.742C18.6734 34.2085 18.2911 34.5908 17.8246 34.575L17.0943 34.5504C16.8617 34.5425 16.637 34.6356 16.478 34.8056L15.9791 35.3395C15.6604 35.6805 15.1197 35.6805 14.801 35.3395L14.3021 34.8056C14.1431 34.6356 13.9184 34.5425 13.6858 34.5504L12.9555 34.575C12.489 34.5908 12.1067 34.2085 12.1225 33.742L12.1472 33.0117C12.155 32.7791 12.062 32.5544 11.8919 32.3955L11.358 31.8965C11.0171 31.5778 11.0171 31.0371 11.358 30.7184L11.8919 30.2195C12.062 30.0605 12.155 29.8359 12.1472 29.6032L12.1225 28.8729C12.1067 28.4065 12.489 28.0241 12.9555 28.0399L13.6858 28.0646C13.9184 28.0724 14.1431 27.9794 14.3021 27.8093L14.801 27.2754Z" fill="#EA415D"/>
<circle cx="15.3901" cy="31.3075" r="2.24778" fill="#FF9686"/>
<line x1="25.9419" y1="15.234" x2="13.0715" y2="15.234" stroke="#FFF9E1" stroke-width="1.48384" stroke-linecap="round"/>
<line x1="25.9419" y1="18.5133" x2="13.0715" y2="18.5133" stroke="#FFF9E1" stroke-width="1.48384" stroke-linecap="round"/>
<line x1="18.7647" y1="21.7927" x2="13.0714" y2="21.7927" stroke="#FFF9E1" stroke-width="1.48384" stroke-linecap="round"/>
</g>
<defs>
<clipPath id="clip0_4293_17682">
<rect y="0.456963" width="46" height="46" rx="23" fill="white"/>
</clipPath>
</defs>
</svg>
